<?xml version="1.0" standalone="no"?>
<!DOCTYPE svg PUBLIC "-//W3C//DTD SVG 20010904//EN"
 "http://www.w3.org/TR/2001/REC-SVG-20010904/DTD/svg10.dtd">
<svg version="1.0" xmlns="http://www.w3.org/2000/svg"
 width="640.000000pt" height="640.000000pt" viewBox="0 0 640.000000 640.000000"
 preserveAspectRatio="xMidYMid meet">
<metadata>
Created by potrace 1.11, written by Peter Selinger 2001-2013
</metadata>
<g transform="translate(0.000000,640.000000) scale(0.100000,-0.100000)"
fill="#000000" stroke="none">
<path d="M5726 6388 c-43 -143 -140 -390 -193 -493 -9 -16 -58 -113 -109 -215
-102 -203 -157 -305 -227 -423 -47 -78 -60 -110 -31 -72 9 11 33 50 55 87 22
37 45 70 51 74 7 4 3 -8 -9 -27 -11 -19 -46 -77 -78 -129 -67 -112 -95 -146
-69 -85 17 42 32 211 20 241 -6 16 -8 15 -27 -2 -11 -10 -52 -70 -91 -133 -39
-62 -84 -128 -100 -146 -15 -18 -35 -50 -44 -71 -19 -47 -54 -97 -61 -90 -8 8
47 116 58 116 5 0 9 9 9 20 0 11 15 57 34 102 68 165 149 431 160 525 3 32 -1
49 -16 68 -20 26 -48 34 -48 14 0 -16 -64 -159 -71 -159 -3 0 5 37 18 83 83
286 119 667 64 667 -15 0 -28 -29 -35 -75 -26 -171 -87 -410 -146 -580 -18
-49 -70 -168 -116 -264 -46 -95 -77 -168 -69 -161 29 24 8 -26 -48 -117 -21
-34 -55 -102 -76 -151 -21 -49 -62 -130 -91 -178 -52 -89 -137 -214 -146 -214
-12 0 1 25 63 120 70 110 180 315 209 390 9 25 26 56 38 70 14 17 15 20 4 11
-22 -16 -22 -6 -4 46 17 47 26 140 16 167 -6 17 -9 15 -27 -15 -11 -19 -62
-115 -112 -215 -81 -162 -165 -296 -236 -378 -14 -16 -27 -27 -30 -25 -2 3 7
29 20 58 25 52 34 131 16 131 -5 0 -30 -31 -55 -69 -54 -81 -129 -144 -314
-266 -80 -52 -137 -96 -142 -110 -9 -24 -30 -43 -30 -28 0 5 6 15 13 22 20 22
-10 4 -77 -47 l-58 -45 8 34 c4 19 8 50 9 70 0 33 31 110 47 117 3 2 0 15 -8
30 -8 15 -14 41 -14 58 0 46 -37 160 -71 221 -39 71 -37 92 16 151 45 50 52
62 37 62 -21 0 -76 -70 -108 -136 -21 -43 -43 -75 -54 -79 -11 -4 -20 -11 -20
-16 0 -15 14 -10 50 16 25 19 36 22 42 12 4 -7 2 -13 -7 -15 -8 -2 -15 -7 -15
-11 0 -9 62 -76 75 -82 13 -5 53 -207 47 -231 -2 -10 -8 -18 -13 -18 -5 0 -6
6 -4 13 3 6 -8 41 -24 76 -16 36 -26 72 -23 80 5 13 7 12 10 -4 2 -11 8 -24
13 -29 11 -12 1 41 -12 66 -5 10 -14 16 -19 13 -6 -3 -7 0 -4 8 3 8 -6 21 -20
31 -25 16 -26 16 -26 -4 0 -14 -4 -19 -12 -14 -8 5 -9 2 -5 -9 3 -9 9 -51 12
-94 l5 -78 -29 60 c-32 65 -36 68 -21 15 17 -59 22 -127 11 -147 -9 -15 -10
-12 -11 18 0 43 -37 169 -49 169 -4 0 0 -24 10 -52 38 -109 18 -258 -44 -339
-37 -49 -54 -58 -59 -32 -4 17 17 73 28 73 2 0 -3 -15 -11 -32 l-16 -33 26 30
c25 30 65 122 65 150 0 25 -20 17 -20 -7 -1 -13 -7 -36 -15 -53 l-13 -30 -1
39 -1 39 -25 -23 c-33 -31 -32 -21 9 55 32 60 33 66 24 121 -10 65 -12 69 -28
59 -8 -5 -8 -11 0 -19 5 -7 13 -33 16 -57 5 -37 2 -50 -20 -82 -14 -21 -26
-41 -26 -45 0 -4 -9 -18 -19 -32 -16 -20 -22 -22 -35 -11 -18 15 -38 6 -34
-17 2 -11 -3 -16 -14 -14 -13 2 -18 -4 -18 -22 0 -14 -4 -28 -10 -31 -5 -3
-18 -26 -29 -50 -11 -25 -23 -45 -26 -45 -3 0 -1 10 5 23 6 12 -6 3 -27 -21
-57 -63 -138 -103 -87 -42 6 8 35 56 63 105 28 50 40 77 28 62 -12 -15 -38
-55 -57 -89 -34 -58 -103 -128 -116 -115 -3 3 15 28 40 55 25 27 46 56 46 65
0 9 29 54 64 100 58 76 96 136 96 152 0 14 -23 2 -47 -27 -77 -90 -142 -132
-74 -48 36 46 31 53 -11 13 -33 -32 -46 -25 -22 11 9 15 14 29 12 32 -3 2 -12
-6 -21 -20 -9 -13 -31 -34 -49 -47 l-33 -23 22 25 c28 31 83 136 83 158 -1 12
-4 10 -14 -7 l-13 -24 -16 26 c-9 14 -17 33 -17 41 0 9 -6 15 -12 12 -7 -2
-18 8 -25 22 -8 20 -12 21 -12 8 -1 -21 -21 -13 -21 9 0 10 13 14 50 14 28 0
50 3 50 8 0 4 -14 20 -30 36 -17 16 -30 33 -30 37 0 5 -14 30 -30 56 -19 30
-30 60 -30 84 0 24 -5 39 -15 43 -17 6 -20 -15 -5 -30 22 -22 -1 -44 -46 -44
-66 0 -94 40 -94 138 0 49 11 34 20 -30 l8 -53 1 55 c1 49 3 53 16 37 13 -18
14 -16 17 15 l3 33 17 -25 c9 -14 18 -42 20 -62 2 -37 18 -44 18 -7 0 22 10
25 28 7 6 -6 14 -9 17 -6 4 3 -5 17 -20 30 -14 14 -26 33 -26 44 0 39 18 113
31 129 19 23 66 32 129 24 31 -4 125 -7 209 -6 112 2 152 -1 152 -10 0 -7 -8
-17 -17 -22 -17 -10 -17 -10 0 -11 27 0 12 -17 -23 -23 -16 -4 -30 -11 -30
-17 0 -15 36 -4 80 24 83 54 252 259 275 334 3 12 11 22 16 22 12 0 12 -47 -1
-55 -5 -3 -10 -16 -10 -29 0 -12 -11 -44 -25 -72 -25 -50 -37 -65 -129 -163
-28 -30 -43 -49 -33 -42 27 21 19 -1 -12 -32 -17 -17 -28 -38 -29 -57 -1 -34
9 -38 29 -13 11 13 11 17 2 20 -18 6 -16 28 2 43 12 10 15 9 16 -6 3 -46 -20
-102 -57 -137 -13 -12 -24 -26 -24 -31 0 -6 14 3 31 20 33 31 79 97 79 114 0
7 97 135 137 180 2 2 1 -4 -3 -15 -4 -11 -25 -45 -48 -75 -23 -30 -47 -63 -55
-75 -14 -20 -14 -20 7 -1 25 22 42 15 22 -9 -12 -15 -10 -15 21 0 29 14 35 22
36 48 0 18 10 58 23 89 12 31 20 65 16 74 -6 15 -11 13 -39 -17 -18 -19 -28
-37 -24 -40 9 -6 -70 -109 -84 -109 -14 0 -11 16 6 30 9 7 13 20 10 28 -6 16
11 42 27 42 6 0 5 -7 -2 -15 -8 -9 -9 -15 -2 -15 13 0 24 17 26 39 1 9 18 41
38 71 66 102 87 195 53 246 l-19 29 -8 -37 c-17 -81 -113 -235 -179 -287 -31
-24 -31 -24 -25 -3 4 12 3 22 -2 22 -6 0 -13 18 -17 40 -4 22 -11 40 -16 40
-6 0 -7 20 -3 49 4 32 2 56 -7 72 -7 13 -12 38 -11 55 2 31 -29 84 -50 84 -7
0 -2 -10 10 -23 27 -28 27 -65 2 -132 -19 -48 -19 -49 -12 -10 11 60 8 123 -6
137 -19 19 -22 5 -8 -37 12 -34 11 -45 -6 -97 -26 -76 -74 -145 -127 -183 -42
-29 -45 -30 -153 -28 -117 3 -128 0 -190 -50 -36 -28 -45 -31 -150 -37 -129
-7 -174 -23 -215 -77 -51 -66 -59 -176 -19 -238 l18 -27 18 40 c29 64 83 90
164 78 25 -4 61 -18 81 -32 26 -18 48 -24 80 -22 38 1 49 -3 70 -27 13 -16 22
-31 20 -33 -2 -2 -27 1 -56 8 -65 16 -220 16 -276 1 -52 -14 -71 -37 -22 -26
70 16 191 0 273 -34 l41 -18 -62 -7 c-71 -8 -192 -40 -235 -62 -37 -19 -25
-41 13 -25 74 32 234 33 303 2 100 -45 118 -102 54 -169 -19 -20 -33 -43 -31
-49 3 -7 -2 -13 -11 -13 -9 0 -16 -4 -16 -9 0 -24 -59 -75 -124 -108 -39 -20
-95 -53 -124 -74 -30 -21 -75 -42 -103 -48 -52 -11 -143 -53 -154 -71 -7 -11
8 -6 99 35 73 33 98 27 31 -7 -56 -29 -92 -63 -76 -72 5 -4 22 -1 36 6 22 10
24 13 10 18 -13 4 1 15 48 38 35 18 73 32 83 32 23 0 168 79 160 87 -3 3 -37
-11 -76 -31 -38 -20 -70 -33 -70 -29 0 9 86 63 100 63 5 0 15 8 22 18 14 20
118 73 118 61 0 -4 -16 -17 -35 -29 -19 -12 -33 -26 -29 -31 8 -13 7 -14 73
53 34 33 64 58 67 55 4 -3 -23 -39 -60 -78 -44 -48 -84 -80 -119 -96 -28 -13
-61 -33 -72 -43 -11 -11 -49 -26 -85 -34 -35 -8 -68 -22 -72 -31 -12 -21 -82
-55 -113 -55 -26 0 -95 -25 -95 -34 0 -2 15 0 33 6 17 5 40 12 50 15 9 3 17 1
17 -4 0 -5 -40 -30 -90 -56 -49 -26 -90 -45 -90 -42 0 3 -10 1 -22 -5 -17 -8
-15 -4 6 12 16 13 38 31 50 41 21 17 21 17 -8 7 -27 -10 -28 -9 -15 7 12 15
12 16 -1 8 -8 -4 -25 -17 -37 -28 -13 -11 -23 -15 -23 -9 0 20 -21 14 -27 -7
-3 -12 -11 -17 -19 -14 -15 6 -69 -25 -60 -34 3 -4 16 2 28 13 l23 19 -19 -23
c-11 -12 -25 -21 -31 -20 -7 2 -38 -24 -69 -57 -44 -46 -54 -53 -42 -29 42 87
170 191 221 178 21 -5 27 -3 32 15 3 11 9 18 14 15 5 -2 20 3 33 12 14 9 45
22 68 29 34 11 37 14 17 14 -14 1 -46 -5 -72 -13 -41 -12 -45 -12 -39 2 4 12
-3 10 -26 -6 -17 -13 -34 -27 -37 -33 -4 -5 -28 -20 -54 -34 -83 -42 -201
-192 -201 -257 0 -24 -9 -23 -37 4 -13 12 -23 17 -23 11 0 -6 14 -23 31 -38
l32 -26 -40 -47 c-22 -26 -44 -45 -49 -42 -5 2 -14 20 -21 39 -6 19 -24 46
-39 60 l-27 26 27 -40 c14 -22 26 -49 26 -60 0 -11 4 -26 9 -34 6 -9 4 -23 -6
-38 l-15 -23 -42 59 c-22 32 -64 77 -93 99 -53 42 -69 60 -60 68 13 13 65 -14
110 -57 28 -27 52 -47 54 -46 8 9 -72 88 -109 107 l-43 22 63 -6 c35 -3 67 -8
72 -11 6 -4 10 10 10 31 0 23 9 51 23 71 24 35 40 44 30 16 -5 -14 0 -12 20 6
l27 24 0 -41 c0 -30 7 -48 26 -69 20 -22 23 -24 15 -6 -6 12 -16 25 -21 28
-22 14 -10 63 25 101 19 21 35 39 35 40 0 2 -17 0 -38 -3 -50 -7 -114 -45
-132 -77 -7 -14 -17 -26 -21 -26 -10 0 -54 76 -64 110 -4 14 -18 39 -31 57
-13 17 -24 36 -24 41 0 5 -21 58 -46 117 -33 77 -45 116 -42 141 2 18 -1 35
-6 37 -5 2 4 21 21 43 18 21 35 53 39 69 4 17 15 48 25 70 10 22 19 54 19 72
0 17 5 35 11 39 14 8 4 96 -16 133 -7 14 -33 39 -58 54 -31 20 -47 37 -50 57
-4 15 -24 47 -45 69 -32 33 -46 41 -75 41 -39 0 -53 -23 -19 -33 9 -2 26 -8
37 -13 18 -7 19 -6 5 11 -9 12 -1 8 22 -8 41 -31 66 -78 70 -128 3 -32 1 -34
-25 -31 -32 3 -33 -2 -9 -29 11 -11 25 -38 33 -61 12 -38 12 -42 -10 -59 -21
-17 -21 -19 -6 -43 15 -23 15 -27 0 -56 -9 -18 -14 -39 -10 -47 3 -9 8 -57 10
-107 4 -61 13 -108 27 -144 18 -43 20 -57 10 -72 -17 -27 -15 -32 7 -25 14 4
24 -1 35 -18 23 -34 32 -87 16 -97 -18 -11 -4 -29 19 -23 31 8 71 -74 52 -106
-7 -11 -14 -10 -39 5 -17 10 -31 25 -30 33 3 36 -3 49 -23 54 -12 3 -18 10
-14 16 3 6 -2 11 -12 11 -15 0 -16 2 -3 10 22 14 5 23 -19 10 -17 -8 -21 -8
-21 3 0 8 7 20 15 27 18 15 10 31 -10 23 -8 -3 -15 -1 -15 5 0 6 6 13 13 15 6
3 1 6 -13 7 -23 1 -24 2 -7 14 23 18 22 29 -3 16 -27 -14 -27 4 0 32 33 35 -9
67 -44 33 -8 -8 -22 -15 -30 -15 -9 0 -16 -7 -16 -15 0 -8 5 -15 11 -15 19 0
0 -53 -26 -77 -30 -27 -30 -29 -5 -36 28 -7 25 -20 -11 -62 -26 -29 -29 -38
-19 -50 10 -13 6 -23 -24 -62 -20 -25 -36 -54 -36 -63 0 -26 -68 -40 -98 -21
-10 6 -4 17 22 43 20 20 36 43 36 52 0 9 5 16 11 16 6 0 9 9 6 20 -3 13 0 20
10 20 10 0 12 6 8 21 -5 14 -3 19 3 15 6 -3 13 -2 16 3 4 5 1 13 -5 17 -6 3
-7 9 -3 13 5 3 15 16 22 28 10 19 10 23 0 24 -7 0 -4 4 7 9 17 7 18 9 4 15
-15 6 -15 9 -2 36 8 16 19 29 24 29 5 0 9 4 9 10 0 5 -6 7 -14 4 -8 -3 -17 -1
-21 5 -3 6 -1 12 4 12 6 1 14 2 19 3 7 1 40 28 67 53 7 7 15 9 19 6 3 -4 6 -1
6 4 0 6 -6 14 -12 16 -7 3 1 6 17 7 26 0 28 2 12 11 -19 11 -44 9 -82 -7 -16
-6 -18 -5 -9 7 13 17 16 59 4 59 -4 0 -11 11 -14 25 -4 14 -13 25 -21 25 -18
0 -18 1 0 -43 17 -41 19 -67 6 -67 -5 0 -19 26 -31 58 -13 31 -54 119 -92 196
-65 130 -68 139 -51 152 10 7 21 14 26 14 4 0 7 4 7 10 0 6 -9 6 -26 0 -49
-19 -63 23 -17 53 l28 18 -27 -4 c-38 -6 -58 9 -36 26 16 13 16 15 0 30 -14
15 -15 17 0 17 8 0 26 -8 39 -18 13 -10 32 -22 42 -25 10 -4 26 -26 37 -49 17
-39 17 -45 4 -65 -14 -22 -13 -23 11 -23 33 0 59 -40 52 -82 -3 -26 2 -40 24
-66 29 -33 33 -46 29 -91 -1 -18 2 -22 14 -18 14 6 52 -30 75 -71 17 -29 23
-5 7 26 -8 16 -12 32 -9 35 3 4 0 13 -7 22 -10 12 -10 15 0 15 10 0 10 3 1 14
-7 8 -8 17 -3 20 10 6 9 36 -2 54 -4 7 -1 12 8 12 21 0 20 9 -1 27 -17 13 -16
14 4 10 29 -6 29 0 1 24 -17 13 -19 19 -8 19 12 0 10 4 -4 15 -17 13 -18 15
-3 15 9 0 17 5 17 10 0 6 -4 10 -10 10 -5 0 -10 5 -10 10 0 6 8 10 18 10 12 0
8 6 -13 20 l-30 20 28 0 c16 0 26 4 22 10 -3 6 -17 10 -31 10 -13 0 -24 5 -24
10 0 6 9 10 20 10 24 0 26 16 3 28 -14 9 -14 10 6 17 27 8 18 25 -15 25 -30 0
-32 20 -1 21 16 1 18 2 5 6 -28 7 -21 23 10 23 25 1 26 1 7 12 -11 6 -23 16
-26 21 -4 5 -14 7 -23 4 -19 -8 -21 -69 -6 -162 17 -101 24 -315 11 -315 -6 0
-11 7 -11 15 0 20 -46 139 -79 205 -16 30 -31 66 -35 80 -8 32 -34 62 -81 94
-45 31 -95 34 -119 7 -16 -18 -16 -20 3 -38 12 -11 29 -44 40 -74 19 -57 44
-112 131 -294 29 -60 61 -132 70 -159 17 -46 17 -51 0 -100 -10 -28 -28 -89
-40 -136 -38 -150 -93 -242 -136 -226 -20 8 -17 -3 11 -40 33 -44 56 -49 109
-26 33 15 53 34 78 74 33 52 78 168 78 201 0 22 23 97 30 97 3 0 12 -15 19
-32 8 -18 31 -69 52 -113 72 -157 89 -196 89 -210 0 -8 -13 -21 -29 -31 -33
-20 -32 -54 3 -54 11 0 32 -9 45 -19 l24 -18 -57 -5 c-35 -3 -67 -12 -84 -25
-41 -31 -35 -47 23 -54 60 -7 103 -26 107 -48 2 -9 -4 -34 -13 -56 -10 -22
-19 -53 -22 -70 -5 -36 17 -128 38 -158 25 -35 19 -45 -22 -40 -127 17 -580
201 -604 245 -5 10 -10 52 -10 95 -1 77 -1 77 -15 43 -12 -27 -17 -32 -24 -20
-10 16 -26 88 -34 159 -3 24 -11 50 -18 58 -9 11 -9 16 2 23 8 5 11 12 7 16
-4 4 -2 14 5 21 9 11 9 17 -3 24 -12 8 -10 12 9 27 26 20 20 32 -15 32 -27 0
-47 37 -31 58 16 19 62 14 93 -10 l28 -21 -12 22 c-16 30 -69 61 -104 61 -16
0 -42 9 -58 21 -45 32 -94 42 -135 29 -42 -14 -44 -30 -3 -30 26 0 30 -3 24
-17 -14 -34 -16 -68 -5 -93 9 -22 10 -19 5 18 -5 40 -3 44 30 63 19 12 32 25
29 30 -11 19 23 8 43 -13 33 -37 45 -67 38 -99 -4 -16 -2 -35 4 -42 5 -7 15
-44 21 -82 6 -38 16 -75 22 -82 12 -15 14 -79 3 -110 -6 -18 -4 -23 9 -23 9 0
18 -12 22 -27 3 -16 10 -43 15 -62 10 -41 6 -49 -12 -26 -8 9 -22 24 -33 33
-30 28 -68 93 -62 108 3 9 -2 14 -14 14 -11 0 -20 7 -20 15 0 8 4 15 9 15 12
0 3 64 -9 68 -6 2 -10 8 -10 13 0 4 7 6 15 3 8 -4 15 -1 15 5 0 6 -6 11 -14
11 -8 0 -18 5 -22 12 -5 8 -1 9 12 5 18 -7 18 -6 1 7 -13 10 -15 16 -7 21 9 6
9 10 -1 16 -11 7 -10 11 6 23 19 15 19 15 -7 16 -34 0 -47 19 -19 27 26 7 27
19 1 33 -25 13 -40 5 -40 -21 0 -11 -4 -18 -8 -15 -5 3 -3 -18 5 -47 7 -29 12
-69 11 -90 l-3 -38 -70 46 c-66 43 -73 46 -120 40 -54 -6 -86 -29 -106 -76
-16 -40 -5 -48 26 -19 15 14 25 18 25 11 0 -8 35 -46 77 -85 42 -39 118 -112
167 -163 l89 -91 4 -182 3 -182 -27 -51 c-18 -31 -39 -55 -57 -62 l-28 -12 23
-17 c14 -9 43 -16 70 -16 36 0 54 6 84 30 69 55 70 58 70 237 0 89 3 164 6
168 4 3 43 -12 88 -34 44 -23 109 -52 143 -65 114 -44 318 -145 318 -158 0 -7
-6 -36 -14 -64 l-13 -51 41 23 c42 23 136 41 136 25 0 -5 -7 -14 -16 -22 -8
-7 -25 -31 -36 -53 -28 -54 -22 -156 10 -188 l22 -22 0 30 c0 49 61 95 128 96
37 0 125 -22 195 -49 25 -10 37 -22 37 -34 0 -11 16 -53 36 -94 24 -51 35 -85
32 -104 l-4 -30 37 19 c47 24 50 35 33 100 -26 101 -18 132 50 206 44 47 63
80 53 90 -3 3 -16 -13 -28 -36 -50 -89 -173 -116 -329 -72 -70 19 -111 26
-151 23 -9 -1 -37 -17 -62 -36 -55 -42 -70 -45 -36 -7 14 15 32 36 40 47 12
17 10 16 -18 -4 -38 -26 -41 -21 -13 19 22 31 53 46 120 59 45 9 45 9 9 10
-49 1 -98 -16 -131 -47 -48 -44 -27 10 24 65 l30 31 -30 16 c-17 9 -38 16 -47
16 -9 0 -13 5 -10 10 8 13 -11 13 -36 0 -11 -6 -19 -7 -19 -1 0 5 20 17 45 28
25 10 45 21 45 25 0 10 -58 -8 -86 -27 -42 -27 -26 1 27 49 30 27 64 48 85 52
l35 6 -35 42 c-39 49 -67 121 -65 174 1 23 3 29 6 15 2 -13 9 -23 14 -23 7 0
8 13 4 33 l-6 32 19 -30 c11 -16 36 -46 56 -65 l36 -34 130 33 c152 40 209 39
291 -3 l54 -28 -30 27 c-16 15 -40 34 -53 43 -13 8 -21 21 -18 29 5 11 1 13
-17 7 -12 -4 -42 -7 -65 -6 -24 1 -53 -3 -63 -9 -24 -12 -26 7 -3 39 9 13 11
22 4 22 -5 0 -18 -16 -27 -35 -16 -34 -43 -55 -43 -33 0 6 14 33 30 60 17 27
26 47 20 43 -6 -4 -24 -31 -41 -60 -34 -60 -53 -80 -68 -70 -7 4 -4 20 9 46
11 21 16 39 12 39 -5 0 -19 -23 -30 -50 -16 -37 -26 -50 -41 -50 -17 0 -21 6
-21 33 0 36 31 129 52 155 50 63 52 64 65 46 12 -16 13 -14 13 14 0 30 19 47
21 20 0 -7 2 -28 3 -46 2 -21 -5 -43 -16 -58 -11 -13 -16 -24 -11 -24 14 0 28
13 52 48 20 29 52 48 35 21 -4 -8 1 -9 17 -3 13 4 38 8 55 9 17 1 47 14 68 30
20 15 40 25 44 21 7 -7 -19 -31 -42 -39 -6 -2 -8 -7 -5 -10 3 -4 23 2 45 14
21 11 50 18 64 15 24 -4 24 -4 5 10 -20 15 -20 15 5 34 14 11 30 20 37 20 19
0 24 -17 8 -30 -23 -19 -18 -29 20 -36 26 -5 41 -2 54 10 10 9 23 16 29 16 6
0 13 4 17 9 3 6 -8 5 -27 -1 -18 -5 -44 -12 -58 -15 -43 -9 -8 17 61 46 34 14
67 35 73 46 6 11 15 23 21 27 5 4 7 10 3 13 -3 3 -46 -10 -94 -29 -49 -19 -91
-33 -93 -30 -9 9 26 36 102 81 126 73 249 154 243 160 -3 3 -49 -24 -103 -60
-103 -70 -241 -143 -250 -134 -3 3 23 24 58 47 34 22 65 43 68 46 10 9 -33
-10 -74 -33 -44 -25 -60 -29 -49 -11 4 6 3 9 -2 6 -5 -3 -39 -24 -77 -47 -37
-22 -71 -41 -75 -41 -4 1 13 19 38 42 41 38 37 37 -27 -3 -27 -17 -41 -6 -22
18 12 16 12 17 -2 6 -9 -7 -19 -10 -22 -6 -11 11 -8 23 6 23 8 0 21 8 30 18
16 18 16 19 -3 17 -11 -1 -46 -26 -77 -56 l-56 -54 26 45 c27 47 111 120 138
120 18 0 33 -26 24 -41 -11 -16 89 3 136 27 25 13 60 40 77 61 38 48 51 39 17
-11 -14 -21 -21 -36 -15 -34 15 5 179 142 175 146 -1 2 -28 -13 -60 -33 -31
-20 -60 -34 -63 -30 -10 10 42 48 109 80 46 22 62 26 71 17 9 -9 8 -12 -5 -12
-9 0 -17 -6 -17 -14 0 -8 -31 -37 -70 -65 -38 -28 -70 -53 -70 -56 0 -3 36 18
81 46 95 59 127 72 82 32 l-31 -28 31 0 c35 0 138 54 212 110 25 19 45 31 45
26 0 -17 -92 -91 -147 -117 -29 -15 -57 -32 -61 -39 -7 -11 -121 -93 -201
-143 -50 -32 -7 -19 82 24 80 39 145 85 140 99 -2 6 24 28 57 49 33 21 88 63
121 92 33 30 62 54 64 54 15 0 -2 -27 -56 -87 -33 -37 -66 -78 -71 -90 -6 -12
-24 -27 -41 -33 -40 -13 -39 -13 -33 13 3 12 -1 7 -9 -10 -9 -20 -31 -41 -54
-53 -22 -11 -55 -38 -73 -61 -18 -23 -59 -59 -90 -80 -32 -22 -62 -49 -68 -60
-7 -11 28 9 79 48 50 37 91 73 91 80 0 16 52 54 115 86 72 36 95 41 95 24 0
-8 -30 -31 -67 -51 -77 -41 -109 -63 -101 -71 3 -3 17 4 31 15 14 11 52 32 84
46 31 14 70 35 86 46 35 25 43 19 24 -19 -8 -15 -12 -33 -10 -39 2 -7 -10 -16
-26 -22 -26 -9 -29 -8 -23 6 3 9 -14 0 -38 -21 -42 -35 -85 -56 -96 -45 -2 3
17 19 43 37 61 39 44 40 -22 1 -27 -16 -62 -30 -77 -30 -16 0 -28 -5 -28 -12
0 -13 -115 -124 -150 -143 -34 -19 -6 -19 30 0 33 17 36 14 18 -15 -16 -25
-13 -26 52 -32 48 -5 51 -5 22 5 -22 7 -31 15 -27 25 3 10 0 12 -10 8 -25 -9
-18 -2 46 52 68 58 70 68 3 20 -46 -33 -70 -32 -39 2 26 28 118 72 138 65 32
-13 26 -34 -24 -75 -27 -23 -49 -48 -49 -56 0 -7 21 7 46 32 26 25 63 53 83
64 35 18 81 55 81 66 0 3 -14 -4 -31 -16 -16 -12 -32 -21 -34 -19 -6 7 41 54
56 57 50 9 130 58 153 95 38 57 25 56 -24 -3 -23 -27 -46 -47 -52 -44 -5 3 0
16 13 30 16 17 18 24 8 24 -27 1 36 39 81 50 25 6 54 12 65 15 18 4 58 46 50
53 -2 2 -21 -6 -44 -17 -37 -19 -40 -19 -35 -4 5 16 4 16 -8 3 -17 -20 -128
-72 -128 -61 0 5 24 25 53 43 76 50 77 51 91 39 9 -7 26 -3 61 14 26 14 51 22
54 19 3 -3 -1 -9 -9 -14 -8 -5 -12 -11 -9 -14 9 -10 129 106 129 124 0 10 5
22 10 25 6 3 10 14 9 23 0 14 -2 14 -11 -3 -23 -44 -179 -165 -178 -137 1 4
26 27 57 52 30 25 67 62 80 83 14 20 34 37 43 37 10 0 20 7 24 15 3 8 13 15
21 15 20 0 13 -28 -23 -85 -23 -36 -23 -38 -3 -21 11 11 34 47 50 81 16 33 36
67 45 74 9 7 14 17 11 21 -3 4 4 10 15 13 22 6 40 59 22 65 -23 7 -11 52 33
119 50 76 53 71 34 -46 -12 -75 -20 -92 -30 -65 -7 18 -8 17 -8 -3 -1 -30 -30
-102 -53 -132 -19 -26 -24 -46 -8 -36 18 11 10 -18 -13 -49 -33 -43 -39 -56
-30 -56 4 0 23 23 42 50 19 28 36 50 38 50 6 0 -24 -66 -49 -106 -33 -51 -117
-144 -131 -144 -6 0 1 12 15 28 31 34 74 104 70 116 -2 4 2 24 9 43 19 58 3
48 -37 -24 -21 -37 -54 -86 -75 -109 -20 -23 -46 -61 -57 -85 -11 -24 -36 -60
-56 -78 -20 -19 -36 -40 -36 -47 0 -7 -8 -10 -20 -7 -14 4 -22 -1 -29 -19 -9
-25 -171 -171 -180 -163 -8 8 41 55 102 97 55 39 83 76 32 42 -24 -16 -25 -16
-18 2 6 17 5 17 -10 5 -10 -8 -17 -9 -17 -3 0 6 12 20 26 31 28 22 50 28 39
11 -3 -5 -2 -10 3 -10 15 0 149 129 135 130 -6 0 -18 -6 -25 -12 -7 -7 -20
-14 -28 -16 -21 -5 -58 -42 -42 -42 7 0 10 -4 7 -10 -3 -5 -11 -10 -16 -10 -6
0 -8 4 -4 9 3 6 -5 9 -17 8 -35 -3 -129 -117 -96 -117 7 0 -12 -25 -42 -55
l-54 -55 24 -24 23 -25 -24 -9 c-33 -13 -126 -30 -174 -31 -44 -2 -63 -11 -22
-11 14 0 29 -5 32 -10 5 -8 11 -7 21 1 18 15 18 -1 -1 -28 -10 -14 -12 -24 -5
-28 5 -3 14 5 19 18 11 29 48 57 74 57 14 0 17 -4 12 -17 -19 -47 -15 -54 11
-18 36 52 41 55 76 43 53 -19 123 -4 183 37 71 48 218 176 211 182 -3 3 -36
-21 -73 -54 -90 -78 -153 -126 -158 -121 -7 7 235 244 278 274 21 14 40 24 43
22 2 -3 -5 -22 -17 -44 -11 -21 -25 -58 -30 -81 -7 -27 -26 -57 -53 -83 -37
-37 -38 -40 -13 -29 24 11 30 10 38 -2 17 -25 4 -106 -24 -142 -25 -33 -111
-87 -121 -76 -4 3 -9 38 -12 78 l-6 72 38 34 c105 91 112 99 49 56 -66 -45
-125 -95 -125 -106 0 -3 7 -13 15 -21 8 -9 15 -34 16 -57 1 -61 12 -90 37
-103 38 -19 38 -25 2 -23 -69 4 -97 -1 -119 -22 -12 -12 -19 -24 -16 -27 4 -4
13 2 21 12 21 29 28 12 10 -23 -27 -52 -18 -73 37 -87 27 -6 28 -5 16 13 -10
16 -9 26 4 52 8 17 12 31 7 31 -5 0 -14 -16 -21 -35 -13 -34 -32 -45 -44 -25
-14 22 47 100 78 100 25 0 117 -33 117 -41 0 -4 9 -5 20 -2 24 6 24 7 5 -46
-14 -41 -14 -42 10 -53 25 -11 79 -3 71 11 -3 4 -19 6 -36 3 -27 -4 -30 -2
-30 25 0 37 29 81 41 62 5 -8 6 -23 4 -34 -3 -11 1 -7 9 10 14 30 41 49 146
104 75 39 145 104 180 165 29 49 39 96 21 96 -4 0 -20 26 -35 59 -20 46 -25
67 -20 102 8 59 36 129 73 187 34 54 202 196 232 198 19 1 52 24 35 24 -4 0
23 16 60 35 121 63 99 32 -50 -70 -80 -55 -145 -104 -146 -108 0 -5 13 1 30
13 16 11 68 41 116 66 48 25 114 64 146 86 32 23 61 39 64 36 7 -8 -65 -68
-149 -123 -41 -26 -84 -64 -98 -83 -26 -38 -110 -126 -196 -205 -92 -83 -45
-50 75 53 65 56 129 103 144 107 15 3 30 13 33 22 5 13 4 14 -6 4 -17 -17 -29
-16 -29 2 0 31 247 192 265 173 3 -3 -29 -26 -72 -52 -44 -25 -89 -60 -102
-77 -25 -34 -20 -32 49 17 59 42 172 106 177 100 3 -2 -8 -12 -24 -22 -100
-62 -193 -127 -189 -131 3 -3 22 5 43 17 21 13 32 17 26 10 -7 -8 -13 -18 -13
-23 0 -4 26 14 58 41 70 60 122 96 128 89 9 -9 -180 -157 -201 -157 -3 0 -3 5
1 11 12 20 -28 -7 -76 -51 -46 -43 -42 -43 23 -3 65 41 40 8 -45 -57 -116 -90
-288 -231 -288 -237 0 -5 0 -5 147 108 105 80 232 163 239 156 4 -4 -31 -36
-105 -95 -15 -11 -20 -21 -14 -25 6 -4 30 9 53 28 44 37 50 40 50 27 0 -5 -30
-32 -66 -61 -36 -29 -63 -55 -60 -59 3 -3 16 4 29 16 13 12 26 22 29 22 13 0
-18 -50 -33 -55 -18 -6 -56 -71 -47 -80 3 -3 14 2 23 12 12 12 14 18 6 21 -13
4 15 42 31 42 5 0 41 33 79 73 39 39 73 67 76 60 5 -14 -20 -70 -49 -105 -23
-30 -19 -49 7 -28 8 7 15 8 15 3 0 -10 -14 -18 -87 -48 -42 -18 -56 -35 -29
-35 8 0 23 -11 33 -23 10 -13 28 -29 39 -35 18 -10 45 -65 59 -124 6 -25 -5
-56 -23 -63 -8 -3 -40 7 -71 22 -78 39 -77 39 -53 8 28 -35 28 -44 0 -38 -22
4 -23 4 -4 -11 11 -9 24 -16 29 -16 4 0 6 -4 3 -9 -3 -5 1 -14 10 -21 12 -10
12 -15 2 -21 -9 -6 -9 -12 4 -26 8 -10 18 -29 21 -43 3 -14 9 -37 13 -52 5
-21 3 -28 -8 -28 -31 0 -50 35 -62 114 -3 16 -8 31 -12 35 -8 7 1 -85 12 -114
5 -15 4 -17 -5 -9 -6 6 -17 45 -25 87 -13 75 -29 120 -22 61 17 -132 17 -133
-10 -49 -14 44 -27 86 -30 94 -10 30 -15 1 -6 -33 10 -36 10 -36 -16 -29 -26
6 -26 5 -10 -14 10 -10 23 -34 29 -51 6 -18 15 -32 20 -32 5 0 9 -4 9 -10 0
-14 -44 -12 -59 3 -10 10 -12 0 -11 -48 2 -85 -1 -89 -15 -20 l-13 60 -1 -47
c-2 -79 -21 -55 -21 26 0 41 -4 78 -10 81 -6 4 -8 -18 -6 -60 3 -36 1 -65 -3
-65 -4 0 -15 16 -25 36 -19 41 -32 41 -17 0 9 -21 8 -26 -5 -26 -12 0 -14 -4
-7 -12 14 -18 23 -58 13 -58 -5 0 -11 6 -14 13 -7 13 0 -19 10 -53 5 -16 3
-19 -10 -14 -14 5 -15 3 -6 -21 6 -15 9 -30 7 -32 -8 -8 -27 25 -36 63 l-9 39
-1 -55 c-1 -63 -12 -88 -28 -68 -16 20 -22 48 -24 106 -3 73 -15 55 -18 -27
-2 -39 -12 -17 -18 36 -5 51 -18 83 -33 83 -4 0 -2 -14 7 -30 23 -46 9 -60
-15 -15 -27 51 -27 41 -1 -39 13 -38 18 -73 14 -83 -6 -16 -8 -16 -18 4 -5 13
-14 23 -19 23 -11 0 -10 -2 7 -43 17 -42 18 -47 6 -47 -9 0 -26 38 -34 75 -5
21 -11 -73 -7 -115 1 -14 7 -31 12 -37 12 -15 0 -17 -20 -5 -8 6 -14 47 -18
123 -3 63 -8 116 -10 118 -2 2 -4 -42 -4 -98 0 -60 -4 -100 -9 -96 -9 5 -14
35 -26 169 -9 100 -18 77 -12 -31 3 -57 2 -103 -2 -103 -11 0 -31 69 -35 120
-2 25 -5 50 -5 55 -1 6 -10 0 -21 -13 -15 -19 -17 -28 -8 -53 7 -21 7 -33 -1
-43 -8 -10 -9 -16 -1 -21 12 -7 14 -25 3 -25 -22 1 -37 23 -48 71 -10 40 -13
46 -14 24 0 -27 4 -52 25 -145 4 -17 2 -22 -5 -15 -6 6 -18 51 -26 100 -9 50
-20 94 -25 99 -5 5 -5 -8 0 -30 15 -75 19 -133 10 -139 -13 -8 -30 37 -30 78
0 18 -4 39 -9 46 -6 10 -8 -4 -4 -37 3 -31 1 -52 -5 -52 -10 0 -17 29 -27 115
-8 64 -14 85 -25 85 -6 0 -12 -11 -16 -25 -5 -20 -10 -23 -35 -18 -36 7 -36 1
-1 -44 27 -36 27 -37 4 -31 -22 6 -23 6 -8 -17 21 -32 21 -52 1 -35 -9 8 -15
9 -15 2 0 -6 5 -14 10 -17 19 -12 11 -33 -10 -28 -15 4 -20 0 -20 -16 0 -12 5
-32 11 -43 6 -11 13 -35 16 -52 7 -48 33 -134 64 -213 16 -40 30 -83 33 -97 4
-24 46 -89 53 -82 2 2 -5 19 -16 37 -19 32 -16 63 5 59 5 -1 18 23 29 53 11
31 24 59 28 63 12 12 8 24 -7 18 -10 -4 -18 6 -25 33 -7 24 -7 39 -1 41 5 2 2
14 -6 27 -9 13 -14 32 -12 42 3 16 64 -114 83 -177 8 -25 8 -25 -14 -6 -37 33
-23 2 17 -35 46 -45 82 -69 101 -69 11 0 10 5 -4 20 -10 11 -29 37 -41 58 -27
42 -32 36 -8 -9 16 -32 14 -49 -3 -27 -11 14 -90 213 -104 262 -16 54 8 13 41
-72 18 -45 34 -81 36 -79 2 2 -5 32 -16 68 -11 35 -20 66 -19 69 0 3 16 -28
35 -69 41 -89 54 -90 19 -1 l-25 63 26 -24 27 -24 -17 32 c-9 18 -16 40 -16
50 0 10 11 -4 24 -32 28 -57 33 -49 11 15 -23 65 -11 59 18 -10 15 -33 28 -60
31 -60 5 0 -20 86 -29 100 -3 6 -2 10 4 10 13 0 40 -92 51 -168 5 -44 5 -53
-4 -39 -26 44 -56 80 -56 69 0 -20 29 -84 46 -103 9 -10 14 -30 12 -45 l-3
-29 -32 45 c-39 52 -43 40 -8 -21 14 -24 25 -52 25 -61 0 -10 4 -18 8 -18 10
0 32 45 32 65 0 20 21 30 31 14 6 -9 7 2 3 29 -4 23 -4 42 -1 42 4 0 27 -35
53 -78 25 -42 44 -70 41 -62 -20 57 -20 56 5 29 12 -14 36 -41 51 -60 l28 -34
-27 48 c-14 26 -24 50 -21 53 3 3 22 -16 43 -41 72 -87 102 -120 107 -115 3 3
-17 30 -44 60 -55 62 -63 86 -24 76 19 -5 23 -3 19 9 -9 22 4 65 20 65 7 0 20
-8 27 -17 12 -15 12 -16 -5 -10 -16 7 -17 5 -5 -9 8 -10 15 -12 17 -5 2 6 8 9
13 5 17 -10 9 4 -26 46 -19 23 -35 46 -35 51 0 22 22 5 59 -43 44 -60 111
-127 111 -112 0 5 -22 32 -50 59 -27 27 -50 52 -50 56 0 11 113 -38 145 -64
48 -38 62 -42 33 -11 -19 21 -26 36 -21 52 7 27 15 28 30 3 6 -10 27 -29 45
-42 l33 -22 -37 39 c-42 44 -44 49 -24 69 12 12 15 11 20 -9 3 -13 25 -36 48
-51 l43 -28 -43 42 c-49 47 -48 64 1 39 69 -35 108 -50 114 -44 3 3 1 6 -6 6
-8 0 -11 6 -7 16 3 8 2 12 -3 9 -25 -15 -167 62 -149 81 3 3 48 -12 99 -34 52
-22 111 -45 131 -51 21 -7 40 -17 43 -21 3 -5 36 -26 73 -47 133 -73 205 -127
343 -252 32 -30 59 -49 59 -44 0 15 -137 151 -159 158 -11 3 -27 17 -36 32
l-17 25 32 -18 c46 -28 161 -141 199 -199 19 -28 44 -61 57 -75 12 -14 38 -52
58 -85 20 -33 36 -55 36 -50 0 6 -18 41 -39 78 l-40 67 28 0 c42 0 126 -47
158 -88 15 -20 45 -62 65 -92 20 -30 46 -67 58 -82 42 -54 10 -27 -41 35 -63
76 -150 169 -154 165 -2 -2 25 -37 60 -78 63 -73 79 -106 29 -59 -22 21 -24
21 -18 4 4 -11 4 -17 0 -13 -4 3 -9 13 -10 22 -1 9 -16 31 -33 49 -16 17 -46
54 -66 81 -21 27 -37 45 -37 41 0 -5 10 -22 23 -39 65 -87 106 -176 52 -114
l-19 23 -6 -24 -6 -25 -22 28 c-12 16 -22 35 -22 42 0 8 -4 14 -9 14 -6 0 -26
27 -47 60 -42 68 -59 75 -21 8 14 -24 23 -51 22 -60 -2 -10 0 -18 5 -18 4 0
22 -29 41 -65 45 -88 75 -125 88 -106 6 9 6 24 0 39 -13 35 -5 37 24 8 16 -15
32 -23 41 -20 9 3 13 10 10 15 -8 13 39 -6 85 -35 44 -28 76 -25 68 5 -6 23 6
25 23 4 7 -8 19 -15 27 -15 13 0 13 2 2 16 -12 15 -11 16 16 10 91 -19 165 -1
260 62 110 74 139 133 140 287 0 89 -1 91 -49 184 -50 95 -87 148 -166 241
-116 136 -194 263 -203 332 -12 93 37 203 88 196 11 -2 34 -25 52 -52 17 -27
46 -64 64 -82 18 -19 30 -37 26 -41 -4 -3 -35 8 -68 25 -71 37 -93 41 -56 12
67 -53 130 -61 210 -29 105 42 118 50 134 77 9 16 33 38 54 50 52 30 90 83 96
134 5 43 5 43 -12 20 -41 -56 -107 -43 -195 38 -79 73 -125 95 -196 93 -67 -2
-106 -17 -141 -55 -40 -43 -61 -118 -32 -118 5 0 9 6 9 13 0 44 24 89 58 111
87 56 182 39 287 -50 36 -31 65 -58 63 -59 -2 -2 -35 12 -73 30 -73 35 -120
47 -120 30 0 -5 9 -9 20 -7 13 1 35 -13 60 -39 37 -39 33 -45 -7 -11 -10 8
-18 11 -18 6 0 -5 27 -34 61 -63 33 -29 58 -55 56 -58 -3 -2 -32 9 -65 26 -48
24 -59 34 -55 49 2 11 -3 27 -13 36 -13 14 -14 20 -5 26 9 5 9 10 3 14 -6 3
-12 1 -14 -6 -3 -7 -15 -4 -35 11 -17 13 -39 21 -49 19 -15 -4 -11 -8 19 -23
54 -27 46 -36 -13 -14 -62 24 -66 11 -4 -15 25 -10 43 -20 41 -23 -3 -2 -22 3
-42 11 -21 9 -45 16 -54 15 -9 0 6 -9 32 -20 64 -26 187 -107 187 -123 0 -10
-57 21 -129 70 -35 24 -73 44 -85 44 -12 0 -27 5 -32 10 -8 8 -15 6 -24 -5 -7
-8 -11 -17 -9 -19 2 -2 23 -15 45 -29 37 -23 95 -87 79 -87 -3 0 -23 18 -44
40 -60 64 -116 48 -161 -46 -47 -97 -3 -219 151 -415 122 -155 191 -253 225
-319 24 -47 29 -68 30 -145 3 -106 -23 -205 -59 -230 -114 -80 -162 -106 -186
-100 -14 3 -41 7 -60 10 -19 2 -48 17 -65 32 -17 16 -44 40 -61 53 l-30 25 30
-34 c17 -19 43 -47 58 -63 26 -28 31 -56 5 -30 -7 7 -25 12 -41 12 -23 0 -50
21 -138 107 -60 58 -107 108 -105 111 11 10 78 -43 141 -113 38 -42 78 -81 89
-87 22 -11 16 -4 -82 102 -23 25 -42 48 -42 52 0 17 175 -79 205 -112 31 -35
37 -21 8 17 l-28 36 53 -6 c29 -3 70 -16 90 -28 l37 -22 -25 27 c-23 26 -23
28 -5 25 31 -5 151 106 162 149 10 40 -16 152 -49 214 -17 32 -69 105 -117
164 -47 58 -101 127 -119 152 -73 102 -133 253 -134 333 0 55 36 144 73 177
12 12 18 22 11 22 -17 0 -60 -50 -84 -98 -13 -29 -20 -62 -20 -99 1 -141 59
-262 212 -443 121 -143 174 -227 195 -306 22 -87 4 -149 -61 -202 -77 -64
-180 -61 -362 10 -98 38 -148 53 -241 73 -84 17 -95 24 -121 74 -56 108 -279
249 -578 365 -67 26 -132 56 -144 67 l-23 20 45 -7 c64 -10 107 -7 162 12 32
10 48 21 48 32 0 15 -32 66 -89 143 -16 23 -12 23 73 5 84 -17 154 -6 211 35
25 18 45 38 45 44 0 24 -66 98 -126 141 l-29 21 40 12 c22 6 59 11 83 11 45 0
121 32 180 77 37 27 92 99 92 118 0 8 -22 15 -55 20 -30 3 -55 10 -55 13 0 4
35 30 78 59 79 53 191 154 211 191 9 16 8 24 -4 36 -8 8 -15 19 -15 25 0 14 5
15 -78 -13 -40 -14 -72 -23 -72 -21 0 2 41 44 91 92 225 217 399 428 399 485
0 26 -16 23 -74 -16 -51 -33 -130 -76 -141 -76 -3 0 22 24 57 54 130 110 268
305 268 377 0 38 -15 36 -69 -9 -42 -34 -111 -84 -151 -107 -17 -10 17 31 94
116 108 119 226 303 271 423 26 69 27 74 14 99 -16 29 -42 19 -93 -39 -26 -30
-50 -53 -52 -51 -3 2 27 67 65 143 86 175 94 193 174 394 69 172 88 242 68
255 -18 10 -35 -9 -118 -127 -42 -59 -78 -106 -80 -104 -2 2 11 55 31 117 92
297 138 573 99 586 -7 3 -15 -1 -17 -9z m84 -492 c0 -3 -4 -8 -10 -11 -5 -3
-10 -1 -10 4 0 6 5 11 10 11 6 0 10 -2 10 -4z m-2429 -393 c-8 -15 -10 -15
-11 -2 0 17 10 32 18 25 2 -3 -1 -13 -7 -23z m1534 -23 c-9 -18 -19 -30 -21
-27 -3 3 2 19 11 37 9 18 19 30 21 27 3 -3 -2 -19 -11 -37z m-65 -42 c-62
-160 -186 -434 -215 -473 -13 -16 -28 -41 -34 -55 -11 -22 -9 -22 13 5 14 17
26 26 26 20 0 -17 -78 -154 -141 -250 l-60 -90 47 50 c28 30 40 39 30 22 -10
-16 -15 -31 -12 -34 3 -3 27 30 55 73 46 74 90 135 76 107 -3 -7 -4 -13 -2
-13 8 0 90 125 90 137 0 7 7 15 15 18 8 3 11 12 8 20 -3 9 0 15 8 15 7 0 19 7
26 15 7 9 15 14 17 11 7 -7 -36 -84 -61 -108 -13 -13 -42 -56 -65 -96 -45 -77
-145 -192 -172 -195 -8 -2 -33 -17 -55 -35 -21 -18 -68 -48 -104 -66 -36 -19
-78 -41 -95 -50 -39 -20 -51 -20 -34 1 8 9 39 27 69 40 63 28 99 64 178 183
31 47 73 105 94 129 21 24 36 47 33 50 -8 7 -68 -63 -122 -143 -50 -74 -149
-186 -165 -186 -5 0 13 26 40 58 60 69 187 252 175 252 -4 0 -35 -39 -67 -85
-32 -47 -61 -83 -63 -81 -3 3 39 73 92 158 54 84 103 162 109 173 7 11 22 37
35 58 35 57 16 44 -25 -18 -20 -30 -39 -55 -41 -55 -6 0 37 81 90 168 54 88
75 105 33 26 -14 -27 -26 -58 -26 -69 0 -11 -23 -65 -50 -118 -28 -54 -46 -96
-41 -93 13 9 146 256 237 441 42 85 77 155 79 155 2 0 -9 -33 -25 -72z m-1490
42 c0 -5 -5 -10 -11 -10 -5 0 -7 5 -4 10 3 6 8 10 11 10 2 0 4 -4 4 -10z m-37
-45 c-3 -9 -8 -14 -10 -11 -3 3 -2 9 2 15 9 16 15 13 8 -4z m45 -19 c-6 -14
-17 -27 -25 -30 -11 -4 -10 1 4 24 21 36 37 40 21 6z m1378 -23 c-8 -15 -15
-25 -16 -21 0 12 23 58 27 54 3 -2 -2 -17 -11 -33z m54 28 c0 -5 -9 -19 -21
-32 l-20 -24 17 33 c19 33 24 38 24 23z m43 -174 c-79 -158 -215 -399 -221
-392 -2 2 20 50 50 107 154 290 233 436 237 432 3 -2 -27 -68 -66 -147z m598
66 c-25 -48 -61 -101 -61 -90 0 11 74 136 78 132 2 -2 -6 -20 -17 -42z m-691
8 c0 -6 -4 -13 -10 -16 -5 -3 -10 1 -10 9 0 9 5 16 10 16 6 0 10 -4 10 -9z
m-1583 -17 c-3 -3 -12 -4 -19 -1 -8 3 -5 6 6 6 11 1 17 -2 13 -5z m2393 -2 c0
-5 -7 -17 -15 -28 -14 -18 -14 -17 -4 9 12 27 19 34 19 19z m-272 -42 c-7 -10
-14 -17 -17 -15 -4 4 18 35 25 35 2 0 -1 -9 -8 -20z m-405 -35 c-9 -19 -18
-33 -21 -31 -4 5 26 66 33 66 3 0 -3 -16 -12 -35z m-2306 -72 c-3 -10 -5 -2
-5 17 0 19 2 27 5 18 2 -10 2 -26 0 -35z m138 20 c-4 -10 -11 -33 -15 -51 -11
-47 -17 -48 -18 -5 -2 43 -21 71 -23 33 l-1 -25 -8 25 -7 25 -8 -28 -7 -28
-14 27 c-8 14 -14 30 -14 35 0 5 27 9 61 9 54 0 60 -2 54 -17z m2775 -66 c0
-2 -10 -12 -22 -23 l-23 -19 19 23 c18 21 26 27 26 19z m-654 -35 c-18 -16
-18 -16 -6 6 6 13 14 21 18 18 3 -4 -2 -14 -12 -24z m-46 -8 c-16 -40 -31 -66
-37 -61 -5 5 34 87 42 87 2 0 0 -12 -5 -26z m489 4 c-14 -27 -59 -82 -59 -73
0 9 60 95 66 95 3 0 -1 -10 -7 -22z m51 -33 c-7 -9 -15 -13 -17 -11 -7 7 7 26
19 26 6 0 6 -6 -2 -15z m-517 -67 c-14 -29 -26 -65 -25 -79 1 -15 -6 -33 -18
-44 -20 -18 -20 -17 -20 9 0 38 67 166 87 166 2 0 -9 -24 -24 -52z m-326 15
c-34 -78 -198 -300 -319 -431 -72 -78 -49 -38 33 57 102 120 150 183 228 304
35 53 65 97 67 97 2 0 -2 -12 -9 -27z m571 -18 c-12 -24 -23 -43 -26 -41 -4 5
36 86 43 86 3 0 -5 -20 -17 -45z m117 -3 c-23 -43 -87 -128 -69 -92 16 31 86
140 91 140 2 0 -7 -22 -22 -48z m-745 23 c0 -8 -4 -15 -10 -15 -5 0 -7 7 -4
15 4 8 8 15 10 15 2 0 4 -7 4 -15z m814 -79 c-57 -74 -71 -80 -23 -9 41 61 61
84 67 78 3 -2 -17 -34 -44 -69z m156 41 c-8 -7 -51 -47 -95 -88 -44 -41 -69
-61 -55 -44 40 47 144 144 155 145 5 0 3 -6 -5 -13z m-14 -67 c-20 -28 -36
-54 -36 -59 0 -5 -72 -81 -160 -169 -88 -88 -156 -162 -149 -164 7 -2 5 -8 -5
-17 -14 -12 -16 -12 -9 5 6 16 4 16 -24 -4 -16 -11 -36 -28 -43 -37 -7 -9 -32
-30 -54 -47 -40 -31 -40 -31 -16 -4 14 16 89 86 166 157 83 76 187 183 249
259 60 72 110 130 112 130 3 0 -11 -23 -31 -50z m-2566 10 c54 -12 120 -40
120 -51 0 -4 3 -14 6 -23 8 -21 -14 -21 -37 0 -10 9 -56 32 -101 50 -83 34
-78 43 12 24z m-1206 -36 c21 -21 30 -58 21 -92 -3 -15 -10 -50 -13 -77 -4
-28 -15 -61 -25 -75 -9 -13 -17 -37 -17 -52 0 -34 -46 -89 -58 -70 -15 22 20
178 43 194 6 5 6 8 -2 8 -17 0 -12 43 7 57 8 7 11 13 5 13 -5 0 -3 5 5 10 13
8 12 10 -3 10 -10 0 -15 5 -12 10 4 6 11 7 17 4 6 -4 8 1 3 15 -5 16 -3 20 8
15 8 -3 18 -1 22 5 10 18 -36 13 -57 -6 -17 -15 -18 -15 -18 3 0 41 45 58 74
28z m3457 -21 c-4 -16 -16 -30 -26 -32 -16 -3 -16 0 4 28 27 38 31 39 22 4z
m71 5 c-7 -7 -12 -8 -12 -2 0 14 12 26 19 19 2 -3 -1 -11 -7 -17z m-839 -19
c-10 -17 -39 -57 -65 -89 -27 -32 -48 -62 -48 -67 0 -4 23 15 52 42 28 28 41
36 27 20 -58 -72 -191 -225 -196 -225 -7 0 8 20 69 92 49 58 64 85 28 53 -39
-35 -19 -2 61 101 81 105 105 129 72 73z m-774 -44 c0 -31 -2 -36 -9 -20 -13
29 -13 94 0 75 5 -8 9 -33 9 -55z m1619 20 c-27 -41 -35 -44 -34 -12 1 12 10
27 21 34 33 20 36 15 13 -22z m-233 -53 c-49 -48 -45 -35 10 25 16 18 31 30
34 27 3 -2 -17 -26 -44 -52z m-2027 36 c-6 -18 -28 -21 -28 -4 0 9 7 16 16 16
9 0 14 -5 12 -12z m1982 -151 c-74 -72 -164 -157 -199 -187 -35 -30 -69 -60
-75 -65 -37 -34 -98 -77 -102 -72 -10 10 6 26 83 83 91 67 217 177 333 291 47
45 87 83 90 83 3 0 -56 -60 -130 -133z m310 48 c-45 -46 -62 -58 -39 -27 29
38 63 72 73 72 6 0 -10 -20 -34 -45z m-62 6 c-7 -12 -16 -21 -21 -21 -8 0 -2
14 16 38 16 20 20 6 5 -17z m-1541 -58 c5 -44 -1 -77 -22 -138 -6 -18 -5 -18
13 3 11 12 23 22 26 22 8 0 -24 -72 -47 -104 -18 -25 -18 -29 -4 -23 13 5 17
1 17 -14 0 -15 -5 -19 -15 -15 -11 4 -15 -1 -15 -17 0 -12 -7 -44 -15 -71 -8
-27 -15 -68 -15 -90 0 -32 -9 -54 -43 -101 -55 -79 -139 -163 -145 -146 -3 8
19 34 47 60 28 25 51 50 51 55 0 5 -9 1 -20 -9 -29 -26 -25 -13 16 51 41 64
68 124 56 124 -4 0 -18 -19 -30 -42 -44 -86 -104 -173 -118 -172 -8 1 -14 -4
-14 -12 0 -8 -17 -33 -37 -56 -28 -30 -32 -38 -15 -29 17 9 22 9 22 0 0 -12
-44 -63 -155 -179 -34 -36 -64 -71 -66 -78 -5 -15 -83 -26 -105 -14 -14 8 -13
10 2 23 12 10 18 10 21 3 10 -30 115 52 206 160 l41 49 -39 -26 c-22 -14 -39
-30 -38 -35 2 -6 -13 -25 -32 -43 -40 -38 -135 -95 -135 -81 0 5 19 28 42 51
58 55 44 52 -32 -9 -34 -27 -66 -50 -71 -50 -19 0 6 31 66 80 36 28 75 64 88
78 13 15 30 28 38 30 8 2 4 -7 -10 -22 -32 -33 -24 -33 51 5 42 21 57 33 48
39 -10 6 -9 18 6 60 10 28 25 57 33 63 10 9 9 2 -4 -23 l-18 -35 29 25 c40 36
134 136 162 173 29 38 92 171 117 247 19 56 23 93 24 235 1 73 2 78 17 63 9
-9 19 -38 21 -65z m713 30 c0 -5 -28 -37 -61 -73 -71 -77 -67 -58 6 23 52 59
55 62 55 50z m550 4 c0 -2 -12 -14 -27 -28 l-28 -24 24 28 c23 25 31 32 31 24z
m233 -62 c-3 -9 -8 -14 -10 -11 -3 3 -2 9 2 15 9 16 15 13 8 -4z m-1938 -36
c-9 -17 -19 -29 -22 -26 -5 5 25 57 33 57 3 0 -3 -14 -11 -31z m1680 -65 c-85
-80 -137 -122 -120 -95 10 17 196 181 203 181 4 -1 -33 -39 -83 -86z m-830 51
c-16 -13 -32 -22 -34 -19 -7 6 40 44 54 43 6 0 -3 -11 -20 -24z m1294 22 c-2
-1 -13 -9 -24 -17 -19 -14 -19 -14 -6 3 7 9 18 17 24 17 6 0 8 -1 6 -3z
m-1019 -10 c0 -2 -11 -17 -25 -33 -27 -32 -34 -22 -9 14 13 19 34 30 34 19z
m426 -12 c-3 -8 -1 -15 5 -15 13 0 -58 -88 -81 -100 -9 -5 -22 -5 -31 1 -12 8
-12 11 2 22 9 7 26 27 37 46 11 18 31 39 44 46 31 17 31 17 24 0z m454 -8 c0
-2 -10 -12 -22 -23 l-23 -19 19 23 c18 21 26 27 26 19z m-269 -34 c-28 -40
-108 -114 -163 -153 -27 -18 -48 -37 -48 -42 0 -16 28 -7 71 23 36 26 39 27
19 6 -14 -14 -88 -69 -165 -123 -77 -53 -155 -115 -173 -136 -39 -44 -122
-104 -122 -88 0 6 10 34 22 62 20 47 20 51 4 60 -15 9 -15 11 6 27 13 10 61
38 108 63 113 61 306 194 388 268 37 33 68 60 70 60 2 0 -6 -12 -17 -27z m304
-11 c-138 -127 -261 -232 -272 -232 -21 0 -4 23 42 59 25 18 45 37 45 42 0 5
-23 -9 -51 -31 -48 -37 -79 -50 -79 -32 0 12 130 84 143 79 13 -4 56 27 146
106 64 56 84 63 26 9z m-1195 -13 c-23 -18 -98 -59 -108 -59 -3 0 3 9 13 20
10 11 26 20 36 20 10 0 31 11 46 24 15 13 30 22 33 19 3 -2 -6 -13 -20 -24z
m620 28 c0 -2 -10 -12 -21 -23 -22 -19 -22 -19 -8 4 12 19 29 30 29 19z
m-1705 -47 c-10 -11 -20 -18 -23 -15 -7 6 18 35 31 35 5 0 2 -9 -8 -20z m411
-51 c-15 -34 -26 -71 -26 -81 0 -31 -78 -126 -142 -174 -62 -46 -77 -50 -60
-17 5 10 16 31 23 46 12 25 54 57 76 57 4 0 -11 -18 -32 -40 -21 -22 -35 -40
-31 -40 8 0 85 80 87 90 0 3 2 15 3 28 2 12 12 32 24 45 11 12 33 49 48 82 25
55 43 79 52 71 2 -2 -8 -32 -22 -67z m-267 35 c-32 -35 -143 -114 -160 -114
-30 0 71 84 151 127 35 18 37 16 9 -13z m2061 -77 c-52 -50 -95 -96 -95 -102
0 -6 -17 -26 -38 -45 -31 -27 -40 -31 -48 -19 -7 10 7 28 53 71 35 31 97 88
138 126 41 39 77 68 80 65 3 -3 -38 -46 -90 -96z m-1836 41 c-9 -18 -32 -55
-51 -81 -18 -26 -32 -51 -29 -55 3 -5 -4 -13 -14 -20 -35 -21 -29 2 18 74 26
39 55 86 66 105 24 43 33 22 10 -23z m-45 1 c-15 -43 -26 -56 -39 -43 -6 6 -1
23 16 48 30 44 39 43 23 -5z m961 37 c0 -7 -72 -47 -77 -43 -6 7 48 47 63 47
8 0 14 -2 14 -4z m-753 -28 c-3 -8 -6 -5 -6 6 -1 11 2 17 5 13 3 -3 4 -12 1
-19z m83 -3 c-16 -43 -41 -87 -46 -82 -8 7 37 107 47 107 5 0 4 -11 -1 -25z
m474 0 c-9 -14 -21 -25 -27 -25 -6 0 0 11 13 25 13 14 25 25 27 25 2 0 -4 -11
-13 -25z m-174 -5 c0 -5 -10 -15 -22 -21 -23 -12 -23 -12 -4 10 21 23 26 26
26 11z m30 -14 c0 -2 -8 -10 -17 -17 -16 -13 -17 -12 -4 4 13 16 21 21 21 13z
m456 -11 c-11 -8 -24 -15 -30 -15 -5 0 -1 7 10 15 10 8 24 14 29 14 6 0 1 -6
-9 -14z m89 5 c-3 -5 -10 -10 -16 -10 -5 0 -9 5 -9 10 0 6 7 10 16 10 8 0 12
-4 9 -10z m-665 -20 c-14 -10 -27 -17 -29 -14 -6 5 31 33 44 33 6 1 -1 -8 -15
-19z m190 5 c0 -2 -10 -10 -22 -16 -21 -11 -22 -11 -9 4 13 16 31 23 31 12z
m125 -16 c-4 -5 -13 -9 -22 -9 -13 0 -13 3 -3 15 13 15 35 11 25 -6z m599 0
c-23 -27 -110 -92 -144 -108 -23 -11 -23 -11 -6 3 10 8 35 30 55 48 52 48 92
78 104 78 6 0 2 -10 -9 -21z m-1634 -10 c0 -13 -71 -81 -78 -74 -6 5 60 83 71
84 4 1 7 -4 7 -10z m1365 -9 c-16 -11 -37 -20 -45 -20 -8 0 -2 9 15 20 17 11
37 20 45 20 8 0 2 -9 -15 -20z m-1437 -19 c-21 -25 -234 -161 -265 -169 -25
-6 -12 13 30 45 83 65 84 65 65 59 -31 -10 -19 2 20 20 57 26 58 27 37 8 -18
-15 -18 -16 -2 -10 10 3 25 6 32 6 7 0 32 16 55 35 51 42 59 44 28 6z m252 16
c0 -2 -12 -14 -27 -28 l-28 -24 24 28 c23 25 31 32 31 24z m1915 -58 c-47 -48
-94 -83 -101 -76 -5 5 124 117 135 117 3 0 -13 -18 -34 -41z m-3623 9 c-7 -7
-12 -8 -12 -2 0 14 12 26 19 19 2 -3 -1 -11 -7 -17z m1428 -32 c0 -13 -116
-98 -177 -130 -28 -14 -33 -14 -33 -2 0 16 76 74 153 117 61 34 57 33 57 15z
m160 -13 c0 -10 -61 -45 -67 -39 -5 5 47 46 58 46 5 0 9 -3 9 -7z m33 -22
c-12 -10 -19 -21 -16 -25 11 -10 -19 -36 -86 -76 -36 -21 -75 -48 -86 -60 -11
-12 -29 -26 -40 -32 -28 -15 99 116 165 168 30 24 62 44 70 44 11 -1 9 -6 -7
-19z m2022 3 c-23 -18 -83 -50 -73 -39 4 4 22 18 40 31 36 25 65 33 33 8z
m-1435 2 c0 -2 -7 -9 -15 -16 -13 -11 -14 -10 -9 4 5 14 24 23 24 12z m-1036
-37 c-10 -11 -60 -45 -110 -75 -59 -34 -106 -71 -130 -100 -37 -45 -105 -89
-126 -82 -6 2 15 23 48 46 32 23 54 42 49 42 -12 0 -81 -45 -112 -73 -24 -22
-39 -18 -30 7 9 22 97 84 135 95 18 5 56 27 84 47 52 39 185 113 202 114 5 0
1 -9 -10 -21z m214 -23 c-43 -37 -138 -91 -138 -79 0 18 159 127 170 117 3 -3
-12 -20 -32 -38z m1752 25 c-35 -27 -123 -74 -116 -62 6 10 126 81 136 81 3 0
-6 -9 -20 -19z m-280 -1 c0 -5 -5 -10 -11 -10 -5 0 -7 5 -4 10 3 6 8 10 11 10
2 0 4 -4 4 -10z m414 -12 c-3 -7 -44 -46 -90 -86 -46 -41 -84 -80 -84 -88 0
-8 2 -14 5 -14 3 0 57 43 120 95 64 52 118 95 122 95 13 0 -31 -41 -179 -165
-124 -103 -175 -139 -235 -165 -80 -35 -213 -108 -213 -117 0 -8 44 9 70 27
14 9 39 22 55 27 17 6 39 14 50 19 16 6 15 3 -5 -14 l-25 -22 43 15 c24 8 79
35 123 59 43 25 79 42 79 38 0 -4 -9 -14 -20 -22 -42 -30 -18 -29 37 2 31 18
53 26 49 20 -9 -15 -100 -62 -119 -62 -17 0 -40 -25 -43 -47 -1 -8 -11 -21
-21 -29 -20 -17 74 33 97 51 8 6 33 22 55 34 l40 23 -35 -32 c-19 -17 -82 -55
-140 -85 -115 -60 -90 -66 30 -7 41 20 80 39 85 40 19 7 -50 -48 -93 -74 -40
-25 -51 -27 -179 -28 l-137 -1 -28 40 c-15 22 -27 47 -28 56 0 9 19 26 44 39
30 16 42 29 39 40 -5 20 39 51 164 113 49 25 95 52 102 61 8 9 21 14 30 11 10
-3 26 2 37 10 18 15 18 16 -6 10 l-25 -7 24 17 c17 13 25 15 30 6 6 -9 11 -8
21 4 11 13 10 15 -4 9 -24 -9 -19 2 10 21 15 9 23 12 20 6 -15 -24 12 -9 69
38 68 56 66 55 59 39z m-151 -51 c-80 -71 -144 -116 -231 -160 -94 -49 -115
-56 -106 -34 4 12 141 96 204 126 25 11 24 11 -5 5 -16 -3 -28 -3 -25 0 9 8
184 96 193 96 4 0 -10 -15 -30 -33z m-333 20 c0 -2 -10 -12 -22 -23 l-23 -19
19 23 c18 21 26 27 26 19z m-1210 -26 c0 -16 -141 -111 -164 -111 -16 0 63 71
106 95 47 27 58 30 58 16z m1930 -12 c-19 -12 -50 -30 -67 -41 -18 -11 -33
-17 -33 -15 0 8 113 77 125 77 5 0 -6 -10 -25 -21z m-990 2 c0 -5 -7 -12 -16
-15 -14 -5 -15 -4 -4 9 14 17 20 19 20 6z m261 -9 c-12 -22 -41 -48 -41 -36 0
8 40 54 47 54 2 0 -1 -8 -6 -18z m839 14 c0 -2 -8 -10 -17 -17 -16 -13 -17
-12 -4 4 13 16 21 21 21 13z m-3507 -110 c15 -32 27 -63 27 -69 0 -6 12 -24
27 -39 20 -21 23 -28 11 -28 -9 0 -20 6 -25 13 -9 10 -84 174 -100 217 -15 38
37 -41 60 -94z m2683 56 c-18 -35 -39 -53 -29 -25 10 27 35 64 40 59 3 -2 -3
-18 -11 -34z m474 -12 c-32 -28 -38 -25 -10 5 13 14 26 23 28 20 3 -3 -5 -14
-18 -25z m115 -40 c-11 -18 -143 -90 -165 -90 -36 0 -11 21 74 61 86 40 101
45 91 29z m-2694 -34 c-12 -12 -46 -41 -76 -62 -31 -21 -58 -49 -61 -62 -5
-16 -10 -20 -17 -13 -14 14 11 49 75 103 56 48 90 69 97 62 2 -2 -5 -15 -18
-28z m2765 25 c-6 -10 -203 -151 -211 -151 -3 0 -5 9 -5 19 0 23 37 51 135
103 71 38 91 45 81 29z m73 -17 c-13 -14 -75 -57 -136 -96 -62 -39 -113 -72
-113 -75 0 -3 30 12 66 32 73 40 92 42 41 5 -36 -27 -201 -122 -232 -134 -17
-6 -16 -4 5 21 72 82 123 122 220 171 57 30 118 65 135 78 39 31 44 30 14 -2z
m-2299 2 c0 -8 -102 -67 -107 -62 -3 2 19 18 49 35 56 32 58 33 58 27z m1904
-40 c-7 -17 -62 -51 -71 -43 -2 3 11 15 29 28 18 13 35 27 37 32 6 16 11 0 5
-17z m-2885 -12 c25 -31 27 -64 6 -64 -8 0 -15 5 -15 10 0 6 -9 10 -20 10 -13
0 -18 5 -14 15 4 10 0 13 -16 10 l-22 -4 23 23 c31 31 34 31 58 0z m1401 11
c-7 -8 -17 -15 -22 -15 -6 0 -5 7 2 15 7 8 17 15 22 15 6 0 5 -7 -2 -15z
m1110 -38 c0 -2 -9 -12 -20 -22 -24 -21 -27 -14 -4 9 15 15 24 20 24 13z
m-3614 -26 c23 -2 56 -40 54 -63 -4 -40 -1 -42 20 -20 17 18 24 20 39 10 26
-16 51 -61 51 -93 0 -22 4 -25 19 -20 23 7 45 -22 56 -73 5 -26 10 -31 20 -22
10 9 19 4 36 -19 13 -17 28 -31 33 -31 15 0 66 -48 66 -61 0 -7 -10 -9 -23 -5
-29 7 -51 -29 -35 -58 7 -13 5 -22 -6 -35 -20 -22 -20 -37 -1 -45 19 -7 19
-45 0 -73 -14 -20 -14 -23 6 -33 18 -10 20 -18 16 -47 -4 -20 -16 -46 -28 -59
l-22 -24 21 0 c47 0 4 -84 -48 -95 -17 -4 -30 -13 -30 -21 0 -17 -46 -19 -56
-3 -3 6 10 34 29 62 39 57 60 104 52 117 -3 5 -1 11 5 15 16 10 12 23 -7 21
-21 -1 -31 35 -35 136 l-3 82 29 7 c16 5 33 6 38 3 4 -3 8 0 8 5 0 6 -5 11
-10 11 -6 0 -74 62 -153 138 -78 76 -161 156 -184 176 -23 21 -44 45 -47 54
-2 9 -7 27 -11 39 -5 19 -2 22 27 25 18 2 40 3 48 2 8 -2 20 -3 26 -3z m161
-58 c-3 -10 -5 -2 -5 17 0 19 2 27 5 18 2 -10 2 -26 0 -35z m1213 -16 c0 -7
-7 -22 -15 -33 -14 -18 -14 -18 -15 7 0 14 3 29 7 32 11 11 23 8 23 -6z m110
-7 c0 -10 -10 -25 -22 -31 -21 -11 -22 -11 -9 4 8 10 9 17 3 17 -6 0 -32 -29
-58 -65 -26 -36 -52 -65 -56 -65 -16 0 31 76 73 118 47 46 69 53 69 22z m119
-16 c-14 -17 -84 -64 -95 -64 -12 0 20 33 60 62 41 29 59 30 35 2z m235 5 c-6
-11 -88 -49 -105 -49 -22 0 -6 18 29 33 67 29 87 33 76 16z m-200 -25 c-6 -23
-61 -60 -72 -49 -4 4 11 22 32 41 43 37 48 38 40 8z m2526 1 c0 -7 -121 -67
-126 -62 -3 2 24 18 58 35 70 35 68 34 68 27z m-2690 -30 c-10 -12 -9 -15 6
-15 17 0 17 -1 -1 -19 -11 -10 -31 -22 -43 -26 -22 -6 -23 -5 -12 17 16 30 52
69 58 63 3 -2 -1 -11 -8 -20z m2770 20 c0 -2 -13 -11 -30 -20 -38 -19 -40 -11
-2 9 31 17 32 18 32 11z m-3187 -30 c18 -9 45 -33 60 -55 30 -42 51 -100 37
-100 -4 0 -11 11 -14 24 -3 14 -27 48 -54 76 -35 37 -56 51 -80 54 -44 5 -53
16 -13 16 18 0 47 -7 64 -15z m-45 -32 c24 -22 57 -73 46 -73 -4 0 -27 20 -51
45 -41 43 -37 64 5 28z m3092 7 c0 -5 -5 -10 -11 -10 -5 0 -7 5 -4 10 3 6 8
10 11 10 2 0 4 -4 4 -10z m-3015 -55 c47 -65 53 -82 54 -153 1 -39 -3 -54 -15
-59 -22 -8 -69 41 -83 88 -11 36 -10 43 5 60 14 15 20 17 26 7 15 -21 -2 33
-23 75 -28 54 -10 45 36 -18z m3005 -5 c-52 -28 -99 -50 -104 -50 -5 0 -7 -3
-3 -6 3 -3 63 17 132 46 136 55 176 61 78 11 -33 -16 -73 -41 -90 -55 -16 -13
-47 -32 -69 -40 -46 -19 -236 -67 -242 -62 -2 3 17 19 42 38 25 18 51 47 57
64 13 33 48 55 127 79 53 17 55 4 2 -20 -23 -10 -43 -22 -46 -27 -6 -9 7 -4
111 40 108 47 111 37 5 -18z m-125 31 c-6 -5 -27 -16 -48 -25 -45 -18 -39 0 7
20 37 16 54 18 41 5z m325 -9 c0 -10 -91 -55 -97 -48 -3 2 17 16 44 30 56 29
53 28 53 18z m-585 -23 c4 -6 4 -13 0 -17 -3 -3 -10 -1 -14 6 -6 10 -18 10
-52 3 -40 -9 -69 -7 -38 3 8 2 21 7 29 9 27 9 69 7 75 -4z m-3345 -42 c0 -18
-2 -19 -10 -7 -13 20 -13 43 0 35 6 -3 10 -16 10 -28z m2649 -22 c-23 -30 -44
-55 -46 -55 -3 0 -1 6 4 13 44 59 75 97 79 97 3 0 -14 -25 -37 -55z m757 33
c4 -7 4 -10 -1 -6 -4 4 -22 -1 -40 -12 -17 -11 -46 -20 -63 -22 -18 -1 -32 -6
-32 -10 0 -14 43 -9 98 12 29 11 58 20 65 20 22 0 -67 -49 -101 -56 -23 -4
-30 -10 -23 -17 12 -12 54 4 122 45 25 15 52 28 59 28 55 0 -163 -112 -221
-114 -21 0 -40 2 -43 5 -8 8 10 99 22 111 5 5 34 13 63 18 80 11 87 11 95 -2z
m-3276 -159 c17 -14 21 -22 13 -26 -7 -2 -13 -13 -13 -24 0 -28 -17 -23 -24 7
-6 21 -9 24 -21 14 -12 -10 -15 -9 -15 4 0 10 -4 15 -9 11 -17 -10 -22 13 -6
28 17 18 41 13 75 -14z m-125 11 c-3 -5 -11 -10 -16 -10 -6 0 -7 5 -4 10 3 6
11 10 16 10 6 0 7 -4 4 -10z m3532 -6 c-3 -3 -12 -4 -19 -1 -8 3 -5 6 6 6 11
1 17 -2 13 -5z m-87 -15 c0 -14 -35 -28 -49 -19 -11 6 -10 10 4 17 20 12 45
13 45 2z m-102 -37 c19 -24 -10 -35 -71 -27 -55 7 -121 34 -82 34 11 0 40 -4
65 -9 27 -5 49 -5 55 1 5 5 -1 9 -17 9 -15 0 -30 5 -33 11 -11 17 68 -1 83
-19z m307 19 c-14 -12 -275 -48 -275 -37 0 11 77 25 170 32 52 3 97 8 99 10 2
2 7 4 10 4 3 0 1 -4 -4 -9z m-3405 -21 c11 -11 20 -27 20 -36 0 -14 -2 -14
-22 0 -30 21 -41 20 -35 -4 3 -11 1 -20 -4 -20 -5 0 -9 11 -9 25 0 14 -4 25
-10 25 -5 0 -10 7 -10 15 0 22 46 19 70 -5z m4607 -88 c-10 -2 -37 8 -61 22
-34 20 -44 31 -42 49 1 23 3 23 61 -22 44 -33 55 -47 42 -49z m71 44 c-4 -27
-33 -32 -66 -10 -24 16 -25 18 -7 24 10 4 32 7 47 7 24 0 28 -4 26 -21z
m-4571 3 c31 -11 43 -26 37 -44 -5 -13 -64 -8 -64 6 0 5 -7 9 -15 9 -8 0 -15
9 -15 20 0 22 16 25 57 9z m3343 -11 c0 -4 -3 -8 -7 -8 -5 0 -55 -3 -113 -5
-125 -6 -122 2 5 13 117 10 115 10 115 0z m860 -20 c0 -6 -7 -5 -15 2 -8 7
-15 17 -15 22 0 6 7 5 15 -2 8 -7 15 -17 15 -22z m-1270 14 c0 -10 -67 -32
-94 -32 -14 0 -15 4 -6 20 8 15 21 20 55 20 25 0 45 -4 45 -8z m118 1 c-10 -2
-28 -2 -40 0 -13 2 -5 4 17 4 22 1 32 -1 23 -4z m1237 -48 c61 -36 111 -51
145 -42 30 8 24 -12 -7 -24 -39 -15 -86 -5 -131 27 -33 24 -80 74 -69 74 3 0
31 -16 62 -35z m-4316 4 c17 -6 31 -15 31 -20 0 -5 -15 -2 -32 7 -53 27 -53
32 1 13z m176 -3 c22 -16 14 -46 -13 -46 -10 0 -33 13 -52 30 l-35 29 41 1
c22 0 49 -6 59 -14z m135 -17 c57 -12 62 -21 22 -38 -15 -6 -42 -25 -59 -41
-18 -17 -39 -30 -48 -30 -20 0 -32 30 -15 40 7 4 11 17 8 28 -7 24 8 52 27 52
8 0 37 -5 65 -11z m2331 -32 c-8 -8 -11 -3 -11 19 1 25 2 27 11 11 8 -14 8
-22 0 -30z m313 37 c46 -18 -8 -32 -63 -17 -23 6 -23 7 -5 14 24 10 48 11 68
3z m181 -4 c-11 -5 -40 -8 -65 -8 -54 0 -21 12 43 15 32 2 37 0 22 -7z m1102
-44 c15 -29 15 -30 -1 -17 -10 8 -24 28 -33 45 -15 29 -15 30 1 17 10 -8 24
-28 33 -45z m213 34 c0 -5 -4 -10 -9 -10 -6 0 -13 5 -16 10 -3 6 1 10 9 10 9
0 16 -4 16 -10z m-1770 -22 c0 -18 -2 -20 -9 -8 -6 8 -7 18 -5 22 9 14 14 9
14 -14z m-2550 -8 c39 -20 53 -40 28 -40 -19 0 -78 38 -78 50 0 14 5 13 50
-10z m2675 10 c8 -13 -5 -13 -25 0 -13 8 -13 10 2 10 9 0 20 -4 23 -10z m343
-42 c57 -22 101 -42 98 -45 -6 -6 -246 85 -246 93 0 7 31 -3 148 -48z m-183
-3 c76 -30 145 -63 145 -69 0 -9 -117 27 -162 50 -54 27 -58 28 -58 13 0 -9
68 -44 199 -100 81 -36 34 -30 -52 6 -47 19 -92 35 -100 35 -20 0 -104 58
-111 76 -15 39 20 36 139 -11z m41 14 c31 -12 54 -23 51 -25 -4 -5 -148 43
-156 52 -9 10 41 -3 105 -27z m1325 -10 c22 -17 37 -34 34 -38 -5 -9 -90 11
-102 23 -4 5 0 6 10 3 14 -5 16 -2 11 18 -8 33 0 31 47 -6z m-1386 -117 c-6
-6 -65 29 -100 59 -23 20 -33 25 -29 14 5 -12 3 -16 -5 -14 -7 3 -19 21 -26
41 l-12 37 87 -67 c49 -37 87 -68 85 -70z m-1015 70 c0 -28 -4 -42 -9 -36 -17
17 -18 99 -1 89 6 -3 10 -27 10 -53z m902 -63 c29 -27 44 -46 33 -40 -30 14
-112 90 -98 91 6 0 36 -23 65 -51z m429 15 c17 -8 29 -18 26 -20 -5 -6 -107
43 -107 51 0 6 40 -10 81 -31z m-561 -28 c19 -7 51 -23 71 -36 69 -49 228
-175 228 -183 1 -11 -46 23 -141 100 -74 60 -96 75 -83 53 9 -14 -7 -12 -27 4
-21 15 -24 30 -5 21 6 -4 3 1 -7 9 -11 9 -32 16 -46 16 -33 0 -65 33 -56 57 6
15 8 15 19 -6 7 -13 28 -29 47 -35z m5 44 c3 -5 14 -10 24 -10 10 0 24 -7 31
-16 8 -8 27 -21 44 -28 30 -13 180 -130 241 -189 l30 -29 -31 17 c-16 9 -74
52 -128 95 -54 44 -123 91 -152 106 -53 27 -97 64 -76 64 6 0 14 -4 17 -10z
m-75 -98 c0 -7 5 -10 10 -7 6 3 10 0 10 -7 0 -7 18 -44 40 -82 43 -74 44 -76
32 -76 -10 0 -127 193 -137 225 -5 15 0 12 19 -10 14 -16 26 -36 26 -43z m115
-37 c33 -26 52 -45 42 -42 -25 9 -157 109 -157 119 0 10 28 -8 115 -77z m262
79 c-3 -3 -12 -4 -19 -1 -8 3 -5 6 6 6 11 1 17 -2 13 -5z m-537 -20 c0 -8 -4
-12 -10 -9 -5 3 -10 10 -10 16 0 5 5 9 10 9 6 0 10 -7 10 -16z m-502 -127 c15
-17 32 -177 18 -177 -12 0 -65 122 -77 177 -9 41 -10 56 -1 65 7 7 12 21 13
33 1 11 8 -2 16 -30 8 -27 22 -58 31 -68z m128 76 c-4 -4 -11 -1 -16 7 -16 25
-11 35 7 17 9 -9 13 -20 9 -24z m502 -51 c71 -94 146 -211 140 -217 -4 -4 -94
118 -178 244 -57 85 -34 69 38 -27z m368 56 c29 -31 29 -31 2 -12 -15 10 -29
25 -32 32 -8 18 -2 15 30 -20z m-539 -72 c-3 -8 10 -51 29 -96 19 -45 34 -87
34 -93 -1 -20 -28 23 -47 72 -10 25 -28 54 -40 64 -25 20 -63 87 -63 109 0 7
14 -10 30 -39 32 -56 62 -85 36 -34 -15 29 -15 30 1 25 12 -4 9 2 -8 18 -15
13 -30 34 -34 47 -6 18 1 15 30 -18 21 -23 35 -47 32 -55z m62 -9 c22 -45 54
-106 71 -134 35 -60 26 -70 -17 -18 -32 38 -107 184 -117 229 -13 51 19 13 63
-77z m-629 78 c0 -8 -2 -15 -4 -15 -2 0 -6 7 -10 15 -3 8 -1 15 4 15 6 0 10
-7 10 -15z m787 -62 c28 -43 65 -97 83 -120 17 -24 27 -43 22 -43 -5 0 -41 44
-79 98 -77 107 -98 142 -85 142 4 0 31 -35 59 -77z m-29 -80 c105 -160 114
-175 89 -155 -27 23 -197 279 -197 297 0 17 22 -12 108 -142z m-326 122 c0 -5
-5 -11 -11 -13 -6 -2 -11 4 -11 13 0 9 5 15 11 13 6 -2 11 -8 11 -13z m277
-118 c86 -132 107 -172 78 -149 -37 31 -167 237 -167 267 0 14 14 -4 89 -118z
m192 76 c105 -88 126 -118 49 -72 -41 25 -88 67 -101 92 -15 27 3 20 52 -20z
m-856 -60 c9 -32 21 -76 27 -98 6 -22 16 -44 21 -50 6 -6 7 -1 2 15 -4 18 -4
21 4 10 5 -8 9 -31 9 -53 0 -35 -2 -36 -14 -19 -26 38 -84 201 -84 240 0 32
20 6 35 -45z m351 -10 c43 -78 123 -187 132 -179 3 3 -11 29 -30 58 -35 52
-68 112 -68 122 0 3 12 -6 26 -19 15 -14 31 -25 35 -25 5 0 9 -6 9 -12 1 -7
21 -47 45 -88 45 -76 50 -97 17 -67 -10 10 -26 17 -35 17 -18 0 -84 61 -111
102 -16 25 -68 158 -62 158 2 0 21 -30 42 -67z m154 -43 c50 -84 72 -137 61
-145 -19 -11 -116 158 -134 235 l-6 25 20 -25 c11 -13 38 -54 59 -90z m515 50
c10 -11 16 -20 13 -20 -3 0 -13 9 -23 20 -10 11 -16 20 -13 20 3 0 13 -9 23
-20z m-2177 -62 c4 -47 19 -56 18 -11 -1 21 4 39 9 40 6 2 10 -13 10 -32 0
-19 3 -35 8 -35 4 0 7 19 7 42 0 23 3 38 7 35 10 -11 16 -217 6 -217 -8 0 -29
41 -74 147 -10 24 -16 49 -13 58 9 23 19 10 22 -27z m2167 32 c19 -8 19 -9 -2
-9 -12 -1 -25 4 -28 9 -7 12 2 12 30 0z m-655 -70 c0 -5 -2 -10 -4 -10 -3 0
-8 5 -11 10 -3 6 -1 10 4 10 6 0 11 -4 11 -10z m530 -10 c0 -5 -4 -10 -10 -10
-5 0 -10 5 -10 10 0 6 5 10 10 10 6 0 10 -4 10 -10z"/>
<path d="M3475 4170 c-3 -5 -1 -10 4 -10 6 0 11 5 11 10 0 6 -2 10 -4 10 -3 0
-8 -4 -11 -10z"/>
<path d="M4619 4460 c-13 -10 -19 -19 -13 -20 6 0 19 9 29 20 23 26 14 26 -16
0z"/>
<path d="M4587 4249 c-58 -41 -80 -66 -29 -33 106 69 113 74 94 74 -5 0 -34
-18 -65 -41z"/>
<path d="M4418 4159 c-63 -32 -78 -48 -25 -26 57 24 112 56 97 56 -8 0 -41
-13 -72 -30z"/>
<path d="M4950 4235 c-13 -14 -19 -25 -13 -25 5 0 20 11 33 25 13 14 19 25 13
25 -5 0 -20 -11 -33 -25z"/>
<path d="M4533 3998 c-21 -34 -31 -58 -23 -58 9 0 25 20 25 32 0 3 4 10 9 15
5 5 6 3 2 -4 -4 -7 -3 -13 2 -13 14 0 21 11 15 26 -6 17 -19 18 -30 2z"/>
<path d="M4390 3890 c0 -5 7 -7 15 -4 8 4 15 8 15 10 0 2 -7 4 -15 4 -8 0 -15
-4 -15 -10z"/>
<path d="M590 3795 c-8 -9 -8 -15 -2 -15 12 0 26 19 19 26 -2 2 -10 -2 -17
-11z"/>
<path d="M617 3773 c-10 -9 -9 -23 2 -23 5 0 11 7 15 15 5 15 -5 20 -17 8z"/>
<path d="M645 3749 c-11 -17 1 -21 15 -4 8 9 8 15 2 15 -6 0 -14 -5 -17 -11z"/>
<path d="M677 3733 c-4 -3 -7 -13 -7 -22 1 -13 3 -13 11 2 11 19 8 33 -4 20z"/>
<path d="M700 3693 c0 -14 49 -73 60 -73 4 0 10 9 13 21 5 17 2 20 -15 16 -16
-5 -19 -2 -15 14 4 14 1 19 -8 16 -7 -3 -18 0 -24 6 -8 8 -11 8 -11 0z"/>
<path d="M788 3624 c-17 -16 -6 -31 47 -67 30 -20 59 -37 64 -37 4 0 13 -12
20 -27 10 -22 14 -24 22 -12 14 22 11 49 -7 49 -20 0 -104 49 -104 61 0 4 -6
6 -14 3 -9 -4 -16 2 -18 16 -2 12 -6 18 -10 14z"/>
<path d="M874 3405 c-17 -13 -17 -14 -2 -15 9 0 20 5 23 11 11 17 0 20 -21 4z"/>
<path d="M870 3350 c0 -51 13 -130 21 -130 12 0 1 132 -11 144 -7 7 -10 1 -10
-14z"/>
<path d="M3235 2955 c4 -51 24 -130 30 -123 2 1 -5 41 -16 88 -14 64 -18 72
-14 35z"/>
<path d="M3577 5408 c-14 -24 -34 -52 -46 -62 -12 -11 -21 -23 -21 -27 0 -12
75 71 89 99 22 43 4 34 -22 -10z"/>
<path d="M2928 5234 c-15 -14 -8 -25 11 -19 17 5 22 -1 31 -33 12 -45 23 -57
63 -67 39 -10 84 11 96 45 7 22 20 32 53 41 l43 13 -60 7 c-113 15 -230 21
-237 13z m111 -20 c1 -1 0 -8 -4 -14 -5 -8 -11 -8 -21 1 -9 7 -14 8 -14 1 0
-47 47 -57 82 -17 22 26 38 25 38 -2 0 -51 -94 -74 -124 -31 -17 23 -21 60 -9
71 6 6 42 0 52 -9z"/>
<path d="M2760 5048 c0 -7 5 -20 10 -28 8 -12 10 -11 10 7 0 12 -4 25 -10 28
-5 3 -10 0 -10 -7z"/>
<path d="M2793 5041 c0 -11 5 -18 9 -15 4 3 5 11 1 19 -7 21 -12 19 -10 -4z"/>
<path d="M3275 4942 c-11 -11 -4 -22 15 -22 11 0 20 4 20 10 0 6 9 6 26 0 20
-8 25 -7 22 2 -5 13 -72 20 -83 10z"/>
<path d="M3223 4907 c2 -7 14 -14 26 -15 28 -4 20 13 -9 21 -14 3 -20 1 -17
-6z"/>
<path d="M3070 4882 c0 -12 44 -31 88 -38 21 -3 51 -14 68 -25 17 -10 38 -19
45 -19 27 1 -66 49 -114 60 -27 5 -57 15 -68 20 -10 6 -19 7 -19 2z"/>
<path d="M3230 4860 c0 -16 73 -30 105 -21 29 9 29 9 -12 10 -23 1 -53 5 -67
11 -16 6 -26 6 -26 0z"/>
<path d="M1154 4835 c-10 -8 -14 -14 -9 -15 15 0 40 18 34 24 -3 3 -14 -1 -25
-9z"/>
<path d="M3057 4836 c21 -16 73 -38 73 -32 0 7 -45 33 -70 40 -25 8 -25 8 -3
-8z"/>
<path d="M3032 4804 c10 -10 20 -15 24 -12 3 4 -5 12 -18 18 -22 12 -22 12 -6
-6z"/>
<path d="M3343 4780 c-13 -5 -23 -12 -23 -15 0 -9 16 -5 36 10 22 16 19 18
-13 5z"/>
<path d="M1180 4765 c-14 -16 -10 -18 14 -9 9 3 16 10 16 15 0 14 -16 11 -30
-6z"/>
<path d="M1207 4744 c-4 -4 -7 -17 -7 -29 0 -27 25 -62 33 -48 9 14 -16 86
-26 77z"/>
<path d="M3150 4742 c0 -5 7 -15 15 -22 8 -7 15 -16 15 -20 0 -13 -37 0 -59
21 -12 11 -21 15 -21 10 0 -16 51 -51 74 -51 21 0 55 16 46 22 -3 2 -20 13
-37 26 -18 12 -33 19 -33 14z"/>
<path d="M3222 4721 c33 -27 51 -88 42 -139 -4 -20 -5 -38 -3 -39 2 -1 -5 -9
-16 -17 -17 -13 -17 -15 -4 -16 9 0 22 7 29 15 19 22 20 104 4 144 -8 19 -12
41 -10 48 3 8 -2 13 -13 13 -11 0 -28 3 -38 7 -11 4 -7 -2 9 -16z"/>
<path d="M3046 4654 c-8 -21 -8 -24 3 -24 5 0 11 9 14 20 6 24 -8 27 -17 4z"/>
<path d="M1241 4651 c-8 -6 -9 -11 -3 -15 6 -3 14 -1 17 5 9 14 2 20 -14 10z"/>
<path d="M3179 4562 c-31 -79 -27 -110 8 -66 13 16 20 36 17 46 -3 10 -1 33 5
53 16 59 -2 39 -30 -33z"/>
<path d="M1252 4613 c28 -63 61 -114 69 -106 12 12 -16 82 -36 89 -8 4 -12 10
-9 15 3 5 -2 9 -11 9 -9 0 -15 -3 -13 -7z"/>
<path d="M3226 4584 c-9 -20 -15 -39 -12 -41 2 -3 12 12 21 32 10 19 16 38 13
40 -2 3 -12 -12 -22 -31z"/>
<path d="M3401 4604 c0 -11 3 -14 6 -6 3 7 2 16 -1 19 -3 4 -6 -2 -5 -13z"/>
<path d="M3101 4374 c-29 -41 -51 -77 -49 -80 3 -2 28 30 57 72 29 41 51 77
49 80 -3 2 -28 -30 -57 -72z"/>
<path d="M3280 4147 c-8 -7 -24 -24 -35 -37 -12 -15 -4 -11 18 9 33 31 42 42
35 41 -2 0 -10 -6 -18 -13z"/>
<path d="M3838 4079 l-53 -51 58 48 c31 26 57 49 57 51 0 9 -13 -2 -62 -48z"/>
<path d="M734 4094 c-18 -14 -18 -15 6 -8 14 3 32 10 40 15 12 7 11 8 -6 9
-11 0 -29 -7 -40 -16z"/>
<path d="M2275 4090 c-3 -5 -2 -10 4 -10 5 0 13 5 16 10 3 6 2 10 -4 10 -5 0
-13 -4 -16 -10z"/>
<path d="M735 4060 c-3 -5 1 -10 9 -10 8 0 18 5 21 10 3 6 -1 10 -9 10 -8 0
-18 -4 -21 -10z"/>
<path d="M908 4063 c-10 -2 -18 -9 -18 -14 0 -11 40 -12 58 0 11 7 10 10 -3
15 -9 3 -17 5 -18 5 -1 -1 -10 -3 -19 -6z"/>
<path d="M3111 4003 c-33 -27 -63 -54 -66 -61 -3 -8 14 2 36 22 23 19 50 36
62 38 21 3 57 48 39 48 -6 0 -38 -21 -71 -47z"/>
<path d="M3903 3949 c-57 -49 -103 -92 -103 -95 0 -6 118 90 185 150 22 19 36
35 30 35 -5 0 -56 -40 -112 -90z"/>
<path d="M2521 3982 c-21 -17 -32 -34 -28 -43 4 -11 6 -10 6 3 1 9 17 26 36
38 19 12 35 24 35 26 0 11 -19 2 -49 -24z"/>
<path d="M982 3964 c-10 -20 -9 -31 3 -52 14 -27 14 -26 15 26 0 28 -2 52 -3
52 -2 0 -9 -11 -15 -26z"/>
<path d="M3898 3829 l-53 -51 58 47 c31 26 57 49 57 51 0 10 -12 0 -62 -47z"/>
<path d="M984 3823 c-7 -28 -6 -45 3 -63 12 -23 13 -20 13 38 0 34 -1 62 -3
62 -2 0 -7 -17 -13 -37z"/>
<path d="M2888 3821 c-18 -16 -30 -32 -27 -35 3 -3 21 10 39 29 41 42 33 46
-12 6z"/>
<path d="M3887 3775 c-20 -14 -37 -28 -37 -31 0 -7 59 29 72 44 16 18 7 15
-35 -13z"/>
<path d="M1844 3755 c22 -17 36 -19 36 -6 0 10 -24 21 -43 21 -7 0 -3 -7 7
-15z"/>
<path d="M2764 3722 c-73 -48 -100 -77 -83 -88 8 -4 15 -2 18 7 7 22 60 68
103 90 37 19 47 29 30 29 -5 0 -35 -17 -68 -38z"/>
<path d="M2815 3709 c-35 -25 -70 -68 -61 -76 8 -8 36 17 36 33 0 7 14 21 30
31 17 9 30 21 30 25 0 11 -2 11 -35 -13z"/>
<path d="M2185 3631 c-22 -11 -35 -20 -30 -20 13 -1 83 24 91 32 14 13 -22 6
-61 -12z"/>
<path d="M4111 3610 c0 -19 4 -44 9 -55 7 -16 9 -13 9 15 0 19 -4 44 -9 55 -7
16 -9 13 -9 -15z"/>
<path d="M2395 3616 c-18 -13 -14 -14 30 -9 63 7 83 23 29 23 -22 0 -49 -6
-59 -14z"/>
<path d="M3928 3575 c-13 -19 -29 -33 -36 -30 -7 3 -11 1 -8 -3 3 -5 -4 -16
-14 -25 -18 -15 -20 -15 -29 1 -8 14 -11 12 -17 -13 -5 -19 -3 -30 4 -33 7 -2
10 -8 6 -13 -3 -5 -1 -9 4 -9 4 0 19 15 32 33 13 17 30 36 37 40 14 8 57 87
48 87 -3 0 -15 -16 -27 -35z"/>
<path d="M2971 3565 c-30 -14 -51 -28 -48 -31 3 -3 31 8 63 25 71 36 60 41
-15 6z"/>
<path d="M2580 3561 c-14 -10 -49 -26 -77 -35 -29 -10 -56 -22 -59 -28 -4 -6
1 -8 15 -3 12 4 21 2 21 -4 0 -6 19 2 43 17 63 40 103 71 92 71 -5 0 -21 -8
-35 -18z"/>
<path d="M2880 3565 c-7 -8 -8 -15 -2 -15 5 0 15 7 22 15 7 8 8 15 2 15 -5 0
-15 -7 -22 -15z"/>
<path d="M3080 3565 c-7 -9 -11 -18 -8 -20 3 -3 11 1 18 10 7 9 11 18 8 20 -3
3 -11 -1 -18 -10z"/>
<path d="M2423 3550 c-7 -11 -37 -26 -66 -35 -44 -13 -59 -23 -80 -56 l-27
-41 38 23 c64 39 182 119 182 124 0 14 -37 2 -47 -15z m-93 -65 c-7 -9 -15
-13 -19 -10 -3 3 1 10 9 15 21 14 24 12 10 -5z"/>
<path d="M2227 3529 c-54 -36 -57 -53 -4 -20 31 19 66 51 56 51 -2 0 -26 -14
-52 -31z"/>
<path d="M3024 3541 c3 -5 -28 -36 -70 -71 -42 -34 -73 -64 -70 -67 6 -6 147
111 159 132 5 11 3 15 -8 15 -9 0 -14 -4 -11 -9z"/>
<path d="M2585 3495 c-27 -25 -46 -45 -41 -45 12 0 106 72 106 82 0 16 -16 7
-65 -37z"/>
<path d="M2961 3529 c-13 -5 -32 -7 -41 -4 -10 3 -28 -4 -41 -15 -22 -20 -22
-20 -2 -11 37 18 37 13 -3 -36 -21 -26 -32 -43 -24 -38 8 5 23 20 33 32 11 13
44 37 75 53 54 27 55 40 3 19z"/>
<path d="M2758 3492 c-16 -9 -28 -20 -28 -24 0 -4 -22 -33 -50 -63 -27 -30
-50 -59 -50 -63 0 -4 21 16 47 43 26 28 63 67 82 88 39 41 39 44 -1 19z"/>
<path d="M1806 3484 c-4 -9 -4 -19 -1 -22 2 -3 7 3 11 12 4 9 4 19 1 22 -2 3
-7 -3 -11 -12z"/>
<path d="M2670 3480 c-19 -11 -28 -19 -20 -20 8 0 29 9 45 20 38 25 21 25 -25
0z"/>
<path d="M3024 3485 c-24 -18 -7 -19 26 0 16 9 19 14 9 15 -8 0 -24 -7 -35
-15z"/>
<path d="M3781 3474 c0 -11 3 -14 6 -6 3 7 2 16 -1 19 -3 4 -6 -2 -5 -13z"/>
<path d="M2331 3449 c-65 -42 -74 -57 -16 -24 73 41 92 55 75 54 -8 0 -35 -14
-59 -30z"/>
<path d="M3035 3418 c-57 -63 -91 -121 -121 -203 -21 -56 -23 -78 -20 -206 3
-158 16 -222 67 -326 22 -45 37 -65 55 -69 32 -8 46 5 68 65 22 61 42 80 31
30 -6 -28 -5 -32 6 -21 10 9 11 21 2 54 -6 23 -8 51 -3 62 4 12 6 36 5 54 -4
52 8 37 34 -41 27 -82 71 -180 78 -173 3 2 -7 31 -21 63 -48 110 -88 228 -93
276 -5 47 -23 67 -23 25 0 -31 -18 -11 -24 27 -6 42 -7 42 -15 21 -5 -14 -11
-6 -26 38 -11 31 -23 56 -28 56 -4 0 -6 -3 -4 -7 3 -5 8 -39 12 -78 10 -111
25 -207 35 -240 16 -51 28 -125 20 -130 -8 -5 -34 57 -50 120 -8 35 -9 31 -4
-29 2 -38 12 -82 20 -98 17 -32 10 -70 -10 -62 -15 6 -55 74 -62 106 -3 13 -9
46 -13 73 l-9 50 -2 -40 -2 -40 -14 50 c-22 80 -24 223 -5 323 19 100 51 164
128 257 64 77 55 87 -12 13z m39 -435 c26 -53 42 -113 29 -113 -7 0 -49 88
-69 143 -13 37 17 14 40 -30z m-1 -96 c9 -30 17 -71 16 -93 l-1 -39 -14 44
c-19 60 -33 141 -24 141 3 0 14 -24 23 -53z"/>
<path d="M3740 3445 c0 -14 4 -25 9 -25 4 0 6 11 3 25 -2 14 -6 25 -8 25 -2 0
-4 -11 -4 -25z"/>
<path d="M2761 3407 c-60 -62 -86 -97 -72 -97 5 0 14 6 18 14 4 8 26 34 48 58
84 90 88 110 6 25z"/>
<path d="M2595 3430 c-3 -5 -2 -10 4 -10 5 0 13 5 16 10 3 6 2 10 -4 10 -5 0
-13 -4 -16 -10z"/>
<path d="M3618 3404 c-3 -37 -28 -62 -28 -28 0 13 -3 15 -11 7 -7 -7 -9 -19
-5 -29 5 -13 15 -16 52 -11 56 6 61 10 44 44 -13 27 -14 27 -18 6 -5 -34 -21
-28 -20 7 1 45 -10 48 -14 4z"/>
<path d="M2955 3404 c-24 -37 -11 -41 15 -5 12 17 17 31 12 31 -5 0 -17 -12
-27 -26z"/>
<path d="M3534 3408 c-7 -23 -12 -49 -13 -80 -1 -22 -46 -25 -55 -3 -8 22 -26
18 -26 -5 0 -25 38 -31 93 -16 29 9 35 21 13 29 -10 4 -12 16 -6 49 9 48 6 62
-6 26z"/>
<path d="M3684 3418 c-8 -13 22 -38 48 -38 24 0 23 21 -2 27 -11 3 -20 9 -20
14 0 13 -18 11 -26 -3z"/>
<path d="M2472 3384 c-23 -20 -47 -45 -54 -57 l-11 -22 23 20 c76 67 104 95
94 95 -6 0 -29 -16 -52 -36z"/>
<path d="M2880 3358 c-54 -69 -56 -76 -6 -23 40 43 54 65 43 65 -2 0 -19 -19
-37 -42z"/>
<path d="M2301 3355 c-17 -20 -31 -38 -31 -40 0 -12 10 -2 40 35 39 49 33 53
-9 5z"/>
<path d="M3188 3347 c-17 -37 -14 -53 13 -67 14 -8 27 -6 49 5 37 19 38 24 4
17 -19 -3 -25 -1 -20 7 4 6 2 11 -3 11 -6 0 -11 -7 -11 -15 0 -8 -4 -15 -9
-15 -19 0 -23 21 -11 51 17 41 7 46 -12 6z"/>
<path d="M2373 3344 c-24 -14 -43 -29 -43 -34 0 -5 21 5 48 22 59 39 57 38 46
38 -5 0 -28 -12 -51 -26z"/>
<path d="M2815 3356 c-29 -32 -55 -70 -55 -79 0 -5 16 11 36 37 20 26 34 49
32 51 -1 1 -8 -2 -13 -9z"/>
<path d="M2071 3344 c-24 -7 -59 -15 -77 -16 -18 -1 -31 -5 -29 -8 2 -4 26 -3
52 1 26 4 53 8 59 8 5 1 19 8 30 16 23 17 22 17 -35 -1z"/>
<path d="M3005 3308 c-10 -29 -26 -70 -36 -90 -28 -55 -22 -70 6 -18 27 49 60
149 52 156 -3 3 -13 -19 -22 -48z"/>
<path d="M3414 3346 c1 -8 5 -18 8 -22 4 -3 5 1 4 10 -1 8 -5 18 -8 22 -4 3
-5 -1 -4 -10z"/>
<path d="M2563 3318 c-26 -44 -35 -71 -23 -63 13 8 53 86 47 91 -3 3 -13 -10
-24 -28z"/>
<path d="M1855 3320 c3 -5 8 -10 11 -10 2 0 4 5 4 10 0 6 -5 10 -11 10 -5 0
-7 -4 -4 -10z"/>
<path d="M2135 3288 c-44 -16 -84 -33 -89 -38 -11 -11 156 39 168 51 21 19 -3
15 -79 -13z"/>
<path d="M1735 3300 c3 -5 8 -10 11 -10 2 0 4 5 4 10 0 6 -5 10 -11 10 -5 0
-7 -4 -4 -10z"/>
<path d="M2897 3303 c-3 -5 -8 -26 -11 -48 -7 -47 8 -27 17 23 6 31 3 41 -6
25z"/>
<path d="M2455 3237 c-53 -82 -74 -120 -75 -132 0 -9 86 120 110 166 25 46 2
24 -35 -34z"/>
<path d="M2340 3272 c-37 -44 -42 -52 -34 -51 12 1 68 69 57 69 -5 0 -15 -8
-23 -18z"/>
<path d="M2674 3253 c-38 -89 -57 -159 -37 -140 8 8 62 177 57 177 -2 0 -11
-17 -20 -37z"/>
<path d="M5415 3260 c-3 -5 -1 -10 4 -10 6 0 11 5 11 10 0 6 -2 10 -4 10 -3 0
-8 -4 -11 -10z"/>
<path d="M2357 3234 c-11 -14 -17 -27 -15 -30 3 -2 14 10 27 26 12 17 18 30
14 30 -4 0 -16 -12 -26 -26z"/>
<path d="M2590 3210 c-17 -22 -29 -40 -25 -40 8 0 41 37 56 63 17 30 2 19 -31
-23z"/>
<path d="M3713 3198 c0 -32 4 -63 9 -70 10 -17 10 34 -2 87 -8 39 -8 38 -7
-17z"/>
<path d="M2773 3228 c-23 -30 -24 -41 -2 -21 12 12 20 25 17 28 -3 3 -10 0
-15 -7z"/>
<path d="M2458 3135 c-51 -66 -57 -78 -34 -69 14 5 91 123 85 128 -2 2 -25
-24 -51 -59z"/>
<path d="M2787 3193 c-4 -3 -7 -11 -7 -17 0 -6 5 -5 12 2 6 6 9 14 7 17 -3 3
-9 2 -12 -2z"/>
<path d="M3045 3180 c-3 -5 -1 -10 4 -10 6 0 11 5 11 10 0 6 -2 10 -4 10 -3 0
-8 -4 -11 -10z"/>
<path d="M3075 3180 c3 -5 8 -10 11 -10 2 0 4 5 4 10 0 6 -5 10 -11 10 -5 0
-7 -4 -4 -10z"/>
<path d="M2696 3136 c-4 -21 -14 -49 -22 -62 -9 -12 -14 -38 -12 -56 3 -29 6
-25 26 40 13 41 22 84 20 95 -3 16 -6 10 -12 -17z"/>
<path d="M2148 3143 c-10 -2 -18 -8 -18 -13 0 -8 57 6 69 16 6 5 -29 3 -51 -3z"/>
<path d="M2788 3103 c-4 -47 -3 -61 6 -52 10 10 17 99 8 99 -6 0 -12 -21 -14
-47z"/>
<path d="M2205 3114 c-27 -13 -54 -29 -60 -36 -6 -6 -6 -9 0 -6 6 3 31 14 57
26 25 12 49 26 53 32 8 13 9 13 -50 -16z"/>
<path d="M2586 3124 c-4 -9 -4 -19 -1 -22 2 -3 7 3 11 12 4 9 4 19 1 22 -2 3
-7 -3 -11 -12z"/>
<path d="M2317 3104 c-11 -14 -17 -28 -14 -30 3 -3 15 9 27 25 12 17 18 31 13
31 -4 0 -16 -12 -26 -26z"/>
<path d="M2862 3108 c-16 -20 -26 -88 -13 -88 10 0 15 20 12 47 -1 7 3 22 9
33 12 22 8 27 -8 8z"/>
<path d="M2015 3100 c-3 -5 -1 -10 4 -10 6 0 11 5 11 10 0 6 -2 10 -4 10 -3 0
-8 -4 -11 -10z"/>
<path d="M2742 3090 c0 -14 2 -19 5 -12 2 6 2 18 0 25 -3 6 -5 1 -5 -13z"/>
<path d="M2516 3092 c-10 -17 -44 -182 -37 -182 4 0 17 43 27 95 20 92 21 104
10 87z"/>
<path d="M2454 3025 c-14 -25 -24 -48 -22 -51 3 -2 17 18 32 46 34 62 26 66
-10 5z"/>
<path d="M2163 3039 c-5 -5 -37 -21 -69 -35 -45 -19 -50 -23 -24 -18 48 9 120
41 120 53 0 14 -13 14 -27 0z"/>
<path d="M2536 3039 c-9 -30 -13 -69 -6 -69 8 0 22 71 15 78 -3 3 -7 -1 -9 -9z"/>
<path d="M2375 2995 c-9 -20 -14 -40 -11 -43 3 -3 13 12 21 33 9 20 14 40 11
43 -3 3 -13 -12 -21 -33z"/>
<path d="M2698 3014 c-5 -4 -8 -21 -8 -38 1 -26 2 -28 11 -13 11 19 8 63 -3
51z"/>
<path d="M2316 2984 c-10 -14 -16 -28 -13 -30 2 -3 12 7 21 22 10 14 16 28 13
30 -2 3 -12 -7 -21 -22z"/>
<path d="M2923 2995 c0 -8 4 -12 9 -9 5 3 6 10 3 15 -9 13 -12 11 -12 -6z"/>
<path d="M2969 3004 c-8 -95 23 -320 48 -351 14 -17 14 -17 8 2 -17 51 -35
159 -41 250 -6 87 -12 130 -15 99z"/>
<path d="M2569 2953 c-32 -96 -8 -413 32 -413 7 0 -1 37 -19 97 -13 41 -14
232 -1 297 11 61 5 70 -12 19z"/>
<path d="M2859 2958 c0 -13 -3 -52 -6 -88 -3 -36 -2 -62 1 -59 9 9 20 169 12
169 -3 0 -6 -10 -7 -22z"/>
<path d="M2795 2960 c-3 -5 -1 -10 4 -10 6 0 11 5 11 10 0 6 -2 10 -4 10 -3 0
-8 -4 -11 -10z"/>
<path d="M3002 2940 c0 -14 2 -19 5 -12 2 6 2 18 0 25 -3 6 -5 1 -5 -13z"/>
<path d="M2642 2920 c0 -14 2 -19 5 -12 2 6 2 18 0 25 -3 6 -5 1 -5 -13z"/>
<path d="M2308 2782 c8 -181 8 -244 -1 -277 l-7 -30 15 33 c8 18 17 47 19 64
2 18 8 34 13 35 7 3 4 23 -8 54 -14 35 -19 75 -19 139 0 49 -4 91 -9 94 -4 3
-6 -47 -3 -112z"/>
<path d="M2783 2820 c0 -47 2 -66 4 -42 2 23 2 61 0 85 -2 23 -4 4 -4 -43z"/>
<path d="M2194 2853 c2 -21 4 -46 5 -55 0 -9 18 -38 38 -65 20 -26 43 -59 50
-73 17 -33 16 -7 -2 54 -8 27 -15 71 -15 98 0 34 -4 47 -11 42 -7 -4 -10 -29
-7 -66 4 -52 3 -58 -9 -42 -17 23 -33 80 -33 117 0 15 -4 27 -10 27 -5 0 -8
-17 -6 -37z"/>
<path d="M2356 2881 c-16 -25 -4 -165 16 -177 6 -4 6 8 1 33 -4 21 -8 64 -7
96 0 59 -1 64 -10 48z"/>
<path d="M2455 2827 c-12 -14 -8 -57 6 -57 5 0 9 8 10 18 0 9 2 25 4 35 4 20
-5 22 -20 4z"/>
<path d="M2640 2814 c0 -8 5 -12 10 -9 6 4 8 11 5 16 -9 14 -15 11 -15 -7z"/>
<path d="M2397 2813 c-8 -13 -9 -133 -1 -171 7 -37 -11 -105 -33 -123 -23 -19
-14 -28 13 -14 32 16 54 10 54 -16 0 -10 4 -19 9 -19 15 0 22 30 11 49 -5 10
-6 22 -2 26 4 3 0 5 -8 3 -15 -3 -21 27 -34 175 -4 45 -3 66 4 62 12 -8 13 5
1 24 -5 7 -11 9 -14 4z"/>
<path d="M2180 2805 c-2 -5 -4 -32 -5 -59 -1 -45 1 -50 27 -60 16 -6 26 -16
24 -23 -3 -7 1 -13 9 -13 16 0 43 -47 56 -95 7 -25 8 -22 5 16 -2 36 -13 58
-49 105 -26 32 -51 77 -56 99 -5 22 -10 36 -11 30z"/>
<path d="M2715 2707 c2 -60 6 -111 9 -115 8 -8 5 91 -4 163 -7 49 -8 39 -5
-48z"/>
<path d="M3130 2792 c0 -5 6 -30 14 -55 8 -26 10 -47 5 -47 -13 0 8 -39 39
-72 23 -25 52 -37 52 -22 0 3 -13 22 -29 42 -16 20 -39 65 -51 100 -21 58 -30
74 -30 54z"/>
<path d="M2594 2738 c8 -48 13 -58 29 -58 8 0 8 3 -1 12 -7 7 -12 29 -12 50 0
22 -5 38 -11 38 -8 0 -9 -13 -5 -42z"/>
<path d="M2664 2755 c-10 -8 -14 -15 -8 -15 6 0 17 7 24 15 16 19 9 19 -16 0z"/>
<path d="M2855 2750 c-3 -5 -1 -10 4 -10 6 0 11 5 11 10 0 6 -2 10 -4 10 -3 0
-8 -4 -11 -10z"/>
<path d="M4170 2708 c0 -3 32 -25 70 -49 39 -24 70 -47 70 -51 0 -5 7 -8 15
-8 8 0 12 -6 10 -12 -3 -7 20 -31 51 -53 30 -22 94 -68 140 -103 47 -35 81
-55 75 -45 -17 32 -64 89 -58 71 7 -19 -7 -25 -17 -9 -4 5 -38 30 -77 56 -38
25 -73 53 -76 61 -3 8 -13 14 -22 14 -11 0 -13 2 -4 8 9 5 -13 25 -65 60 -76
50 -112 69 -112 60z"/>
<path d="M2790 2691 c0 -5 5 -13 10 -16 6 -3 10 -2 10 4 0 5 -4 13 -10 16 -5
3 -10 2 -10 -4z"/>
<path d="M4301 2696 c8 -7 161 -86 167 -86 13 0 -16 20 -80 54 -55 30 -104 48
-87 32z"/>
<path d="M2510 2653 c0 -13 5 -23 10 -23 13 0 13 11 0 30 -8 12 -10 11 -10 -7z"/>
<path d="M4320 2661 c0 -5 7 -12 16 -15 14 -5 15 -4 4 9 -14 17 -20 19 -20 6z"/>
<path d="M3085 2629 l-17 -31 26 18 c27 21 31 30 16 39 -5 3 -16 -8 -25 -26z"/>
<path d="M2796 2634 c-4 -9 -4 -19 -1 -22 2 -3 7 3 11 12 4 9 4 19 1 22 -2 3
-7 -3 -11 -12z"/>
<path d="M4035 2592 c33 -34 61 -62 64 -62 9 0 -73 85 -105 109 -10 8 8 -13
41 -47z"/>
<path d="M3411 2592 c12 -35 29 -52 29 -29 0 8 -9 25 -20 38 l-20 24 11 -33z"/>
<path d="M4230 2611 c0 -5 8 -12 17 -15 13 -5 14 -9 5 -15 -8 -5 15 -33 75
-87 48 -43 130 -122 182 -174 101 -102 105 -96 6 8 -72 75 -83 98 -29 57 54
-40 102 -93 125 -137 10 -20 46 -60 80 -89 33 -30 70 -70 80 -91 10 -20 24
-40 30 -43 26 -17 -37 80 -89 137 -32 35 -67 74 -78 88 -42 55 -161 167 -194
182 -37 18 -139 101 -153 124 -5 9 -3 14 4 14 7 0 -2 11 -21 25 -38 28 -40 29
-40 16z"/>
<path d="M3346 2597 c3 -10 9 -15 12 -12 3 3 0 11 -7 18 -10 9 -11 8 -5 -6z"/>
<path d="M3460 2602 c0 -15 38 -44 44 -34 3 6 -5 17 -19 26 -14 9 -25 13 -25
8z"/>
<path d="M3600 2602 c0 -5 11 -19 25 -32 28 -26 33 -16 9 18 -15 22 -34 30
-34 14z"/>
<path d="M3921 2580 c13 -16 24 -28 27 -26 5 6 -31 55 -41 56 -4 0 2 -13 14
-30z"/>
<path d="M4434 2575 c48 -43 106 -78 106 -65 0 6 -4 10 -9 10 -5 0 -24 14 -42
31 -41 39 -71 59 -84 59 -5 -1 8 -16 29 -35z"/>
<path d="M2930 2577 c0 -20 30 -90 36 -84 2 2 -5 25 -16 53 -10 27 -19 41 -20
31z"/>
<path d="M3162 2565 c6 -14 15 -25 20 -25 5 0 1 11 -8 25 -9 14 -18 25 -20 25
-2 0 2 -11 8 -25z"/>
<path d="M4527 2557 c15 -13 43 -33 60 -46 29 -19 32 -20 26 -4 -5 14 -4 16 8
8 8 -5 6 -2 -5 8 -15 14 -21 15 -27 5 -7 -10 -9 -9 -9 3 0 9 -15 24 -34 33
-47 22 -53 20 -19 -7z"/>
<path d="M2790 2566 c0 -3 9 -28 20 -56 11 -29 21 -63 22 -76 1 -13 6 -24 10
-24 19 0 17 29 -7 78 -14 28 -25 56 -25 61 0 6 -4 13 -10 16 -5 3 -10 4 -10 1z"/>
<path d="M3130 2550 c0 -5 5 -10 11 -10 5 0 7 5 4 10 -3 6 -8 10 -11 10 -2 0
-4 -4 -4 -10z"/>
<path d="M3386 2547 c3 -10 9 -15 12 -12 3 3 0 11 -7 18 -10 9 -11 8 -5 -6z"/>
<path d="M3985 2529 c9 -17 19 -29 21 -26 8 7 -15 57 -26 57 -6 0 -4 -13 5
-31z"/>
<path d="M2470 2530 c0 -14 9 -39 19 -56 19 -31 80 -84 96 -84 5 0 36 -18 69
-39 34 -22 82 -49 109 -61 57 -25 334 -78 449 -84 l83 -5 -75 14 c-63 12 -80
19 -104 47 -26 30 -28 27 -10 -16 11 -27 -78 1 -108 34 -29 32 -35 32 -18 -1
8 -15 7 -19 -4 -19 -13 0 -32 19 -63 66 -8 11 -7 3 2 -20 8 -22 14 -41 12 -42
-7 -7 -77 18 -93 33 -12 12 -18 13 -23 4 -6 -9 -18 2 -37 33 -16 25 -36 46
-44 46 -13 -1 -13 -2 1 -13 9 -7 21 -22 28 -34 17 -33 -11 -31 -37 2 -11 14
-22 21 -24 15 -5 -16 -86 41 -108 75 -10 16 -17 32 -14 36 2 4 0 10 -6 14 -5
3 -10 -3 -10 -14 0 -12 -3 -21 -8 -21 -15 0 -62 51 -62 68 0 9 -5 24 -10 32
-8 12 -10 10 -10 -10z"/>
<path d="M3020 2533 c0 -12 5 -25 10 -28 13 -8 13 15 0 35 -8 12 -10 11 -10
-7z"/>
<path d="M3882 2526 c6 -14 15 -26 20 -26 10 0 -7 36 -22 45 -6 4 -5 -5 2 -19z"/>
<path d="M4289 2463 c47 -45 90 -83 95 -83 5 0 -2 9 -15 21 -13 11 -44 39 -69
62 -88 81 -95 81 -11 0z"/>
<path d="M3940 2522 c0 -12 19 -26 26 -19 2 2 -2 10 -11 17 -9 8 -15 8 -15 2z"/>
<path d="M4130 2526 c0 -3 108 -88 128 -100 30 -18 7 7 -52 53 -58 46 -76 58
-76 47z"/>
<path d="M2511 2504 c0 -11 3 -14 6 -6 3 7 2 16 -1 19 -3 4 -6 -2 -5 -13z"/>
<path d="M3516 2507 c3 -10 9 -15 12 -12 3 3 0 11 -7 18 -10 9 -11 8 -5 -6z"/>
<path d="M2707 2491 c-4 -17 -3 -21 5 -13 5 5 8 16 6 23 -3 8 -7 3 -11 -10z"/>
<path d="M2891 2500 c0 -8 8 -33 19 -55 11 -22 17 -29 14 -15 -10 38 -32 87
-33 70z"/>
<path d="M3460 2503 c0 -6 8 -17 18 -24 16 -13 16 -13 2 6 -8 11 -16 22 -17
24 -2 2 -3 0 -3 -6z"/>
<path d="M3620 2489 c42 -25 84 -71 110 -119 11 -19 19 -28 20 -19 1 43 -109
159 -151 159 -7 0 2 -10 21 -21z"/>
<path d="M4088 2490 c28 -26 92 -62 92 -51 0 13 -35 41 -52 41 -9 0 -21 7 -28
15 -7 8 -17 15 -23 15 -6 0 -1 -9 11 -20z"/>
<path d="M3147 2463 c5 -14 35 -61 60 -92 2 -2 5 -2 8 1 3 3 -8 22 -25 43 -16
21 -30 44 -30 51 0 8 -4 14 -10 14 -5 0 -7 -8 -3 -17z"/>
<path d="M3970 2475 c0 -22 101 -163 207 -289 18 -22 33 -43 33 -48 0 -15 30
-81 35 -76 12 11 -39 116 -73 152 -38 40 -121 150 -175 231 -15 22 -27 35 -27
30z"/>
<path d="M4060 2474 c0 -10 67 -99 87 -115 9 -8 -3 14 -27 49 -42 61 -60 81
-60 66z"/>
<path d="M4770 2359 c69 -68 127 -123 129 -121 3 1 -10 17 -27 35 -31 32 -43
55 -22 42 6 -3 10 -3 10 2 -1 13 -98 119 -104 113 -2 -3 16 -27 41 -53 67 -70
45 -68 -29 2 -124 116 -122 103 2 -20z"/>
<path d="M2760 2460 c0 -8 5 -22 10 -30 9 -13 10 -13 10 0 0 8 -5 22 -10 30
-9 13 -10 13 -10 0z"/>
<path d="M4590 2465 c0 -10 107 -152 122 -161 7 -5 -1 10 -18 31 -47 61 -51
71 -18 48 42 -30 119 -114 138 -151 20 -39 20 -48 1 -32 -25 20 -19 -16 6 -41
22 -22 24 -30 33 -180 6 -100 -14 -115 -54 -41 -10 20 -19 32 -20 26 0 -6 16
-41 35 -78 37 -72 45 -109 20 -100 -8 3 8 -31 35 -77 28 -45 54 -97 59 -115 5
-18 19 -47 30 -63 12 -16 21 -34 21 -40 0 -6 10 -11 22 -11 21 0 21 0 2 23
-10 12 -25 26 -31 30 -21 13 -15 24 12 22 29 -4 31 3 10 31 -18 24 -19 34 -1
34 22 0 28 17 16 40 -19 35 -42 6 -38 -47 2 -24 0 -43 -4 -43 -8 0 -80 137
-98 186 -15 39 6 27 34 -18 14 -24 25 -38 26 -32 0 5 -13 31 -30 57 -32 52
-50 102 -32 96 6 -2 31 -31 56 -63 59 -76 60 -64 2 17 -41 58 -44 67 -50 146
-4 46 -10 89 -13 95 -4 6 3 3 15 -8 12 -10 24 -27 28 -38 3 -10 16 -29 28 -41
35 -35 74 -108 79 -147 2 -20 12 -49 21 -65 l17 -30 -5 30 c-29 201 -75 375
-97 375 -14 0 -11 -23 7 -59 17 -34 10 -59 -8 -27 -13 23 -73 87 -62 66 8 -16
87 -127 103 -146 10 -12 5 -24 -10 -24 -4 0 -28 29 -54 64 -25 35 -52 69 -60
76 -8 7 -12 17 -9 22 3 5 -2 41 -12 80 -15 63 -23 78 -73 128 -65 65 -181 165
-181 155z"/>
<path d="M3000 2451 c0 -5 5 -13 10 -16 6 -3 10 -2 10 4 0 5 -4 13 -10 16 -5
3 -10 2 -10 -4z"/>
<path d="M3575 2450 c3 -5 8 -10 11 -10 2 0 4 5 4 10 0 6 -5 10 -11 10 -5 0
-7 -4 -4 -10z"/>
<path d="M3770 2445 c7 -9 15 -13 17 -11 7 7 -7 26 -19 26 -6 0 -6 -6 2 -15z"/>
<path d="M3933 2447 c9 -23 77 -127 83 -127 4 0 0 10 -8 23 -8 12 -27 43 -42
70 -26 44 -44 63 -33 34z"/>
<path d="M2610 2435 c0 -8 4 -15 10 -15 5 0 7 7 4 15 -4 8 -8 15 -10 15 -2 0
-4 -7 -4 -15z"/>
<path d="M3337 2439 c7 -7 15 -10 18 -7 3 3 -2 9 -12 12 -14 6 -15 5 -6 -5z"/>
<path d="M3907 2378 c86 -134 96 -148 100 -145 2 3 -16 35 -39 73 -69 111 -93
144 -101 144 -4 0 14 -33 40 -72z"/>
<path d="M4485 2434 c11 -8 28 -21 38 -29 9 -8 17 -11 17 -7 0 10 -55 52 -67
52 -4 0 1 -7 12 -16z"/>
<path d="M4056 2405 c15 -20 29 -34 31 -31 6 6 -39 66 -49 66 -5 0 3 -16 18
-35z"/>
<path d="M4291 2423 c31 -41 93 -102 98 -97 3 3 1 8 -5 12 -5 4 -27 28 -48 55
-21 26 -43 47 -48 47 -6 0 -4 -8 3 -17z"/>
<path d="M3473 2414 c-3 -8 3 -31 13 -50 22 -40 32 -29 11 13 -8 15 -12 34
-10 41 7 18 -7 15 -14 -4z"/>
<path d="M3520 2422 c0 -9 49 -32 67 -32 7 0 13 -10 13 -21 0 -33 20 -93 40
-119 19 -25 39 -23 24 2 -5 7 -9 18 -10 25 -5 31 -36 113 -47 121 -16 13 -87
32 -87 24z"/>
<path d="M3120 2410 c0 -5 5 -10 11 -10 5 0 7 5 4 10 -3 6 -8 10 -11 10 -2 0
-4 -4 -4 -10z"/>
<path d="M3827 2403 c-3 -5 18 -33 45 -63 l50 -55 -42 63 c-45 65 -46 66 -53
55z"/>
<path d="M4170 2405 c0 -6 14 -26 30 -45 17 -19 26 -26 21 -15 -16 30 -51 71
-51 60z"/>
<path d="M3547 2350 c15 -29 29 -48 31 -42 4 14 -22 65 -43 82 -10 8 -5 -7 12
-40z"/>
<path d="M4550 2381 c0 -5 7 -12 16 -15 14 -5 15 -4 4 9 -14 17 -20 19 -20 6z"/>
<path d="M3270 2365 c7 -8 19 -15 27 -15 13 0 13 3 3 15 -7 8 -19 15 -27 15
-13 0 -13 -3 -3 -15z"/>
<path d="M3426 2355 c7 -33 24 -58 24 -34 -1 7 -7 25 -15 39 l-15 25 6 -30z"/>
<path d="M3666 2328 c18 -60 50 -138 58 -138 3 0 -8 39 -25 88 -24 74 -26 83
-9 62 11 -14 20 -29 20 -34 0 -5 3 -6 7 -3 7 8 33 -11 33 -25 0 -6 -7 -7 -16
-4 -16 6 -16 5 3 -56 l7 -23 6 25 7 25 11 -26 c17 -43 26 -139 12 -139 -7 0
-3 -12 10 -30 26 -36 18 -53 -21 -46 -16 2 -29 2 -29 -1 0 -10 28 -32 34 -26
3 4 6 -4 6 -16 0 -34 71 -163 92 -169 15 -4 16 -7 6 -20 -11 -13 -10 -15 5 -9
15 6 16 4 7 -14 -9 -15 -8 -24 1 -35 6 -8 9 -17 6 -20 -9 -10 -24 4 -30 28 -4
13 -31 70 -62 126 -30 57 -55 108 -55 113 0 5 -4 9 -10 9 -5 0 -6 -8 -2 -17
99 -221 238 -465 253 -441 9 14 21 3 209 -181 74 -73 164 -151 200 -175 59
-39 101 -76 87 -76 -11 0 -172 113 -184 129 -10 12 -12 13 -13 2 0 -11 -4 -10
-20 4 -10 9 -18 20 -17 24 1 3 -1 7 -6 8 -4 2 -20 9 -35 16 -15 8 -33 12 -39
10 -7 -3 -13 -1 -13 4 0 4 -16 26 -36 48 -20 22 -47 57 -60 78 -14 21 -28 35
-33 33 -5 -3 -17 4 -27 16 -17 19 -17 21 -1 15 9 -4 17 -3 17 1 0 14 -22 31
-35 26 -7 -3 -24 9 -38 25 -14 17 -29 31 -32 31 -4 0 13 -24 36 -52 72 -88
221 -248 231 -248 4 0 33 -20 64 -45 30 -25 64 -45 75 -45 15 0 19 -5 15 -15
-4 -11 2 -15 24 -15 17 0 40 -10 57 -26 l28 -26 -38 21 c-21 12 -44 21 -51 21
-23 0 -117 50 -111 59 6 10 -46 51 -65 51 -15 0 -305 290 -305 305 0 16 -58
106 -64 100 -2 -3 10 -26 28 -51 18 -26 30 -49 27 -51 -7 -7 -117 108 -112
116 3 4 0 13 -6 21 -8 12 -9 12 -4 -2 9 -30 -8 -20 -32 18 -19 29 -122 283
-146 362 -10 29 3 28 37 -4 55 -51 36 -16 -24 45 -72 72 -102 90 -166 96 l-48
5 54 -15 c30 -9 61 -21 69 -27 22 -19 58 -97 93 -204 57 -177 111 -272 218
-386 28 -30 71 -84 94 -119 52 -77 181 -191 243 -215 25 -9 60 -31 79 -48 19
-17 73 -53 120 -80 73 -41 94 -49 133 -47 77 2 145 -23 193 -74 24 -25 49 -45
56 -45 7 0 13 -5 13 -10 0 -6 12 -23 26 -38 73 -76 225 -341 240 -418 4 -23 1
-40 -13 -59 -16 -23 -23 -25 -66 -21 -72 8 -105 -2 -123 -35 -8 -16 -19 -29
-25 -29 -6 0 -7 6 -4 13 4 6 -1 3 -9 -7 -20 -25 -20 -66 -1 -92 17 -22 20 -12
4 19 -9 20 -9 20 4 5 20 -26 24 -23 30 23 9 64 34 83 114 84 38 1 79 5 92 10
18 6 23 5 19 -6 -2 -8 -20 -15 -39 -17 -39 -4 -65 -22 -31 -22 12 0 22 -4 22
-10 0 -19 32 -10 60 19 l29 28 27 -28 c15 -16 32 -29 37 -29 5 0 -12 21 -37
47 -26 27 -49 59 -53 73 -3 14 -10 30 -14 36 -5 6 -18 36 -28 67 -20 56 -20
56 0 44 10 -6 22 -19 24 -28 3 -9 18 -27 33 -40 l27 -24 -21 25 c-12 14 -25
35 -28 46 -4 12 -22 32 -41 45 -19 13 -38 34 -44 46 -6 12 -32 53 -59 90 -27
37 -60 89 -75 114 -15 26 -64 81 -109 123 -55 51 -76 76 -64 76 10 0 66 -48
125 -107 111 -113 129 -132 277 -303 50 -58 102 -114 115 -125 l24 -20 -15 20
c-12 16 -172 198 -190 215 -19 18 -90 109 -90 115 0 8 72 -51 144 -119 28 -25
52 -46 55 -46 14 0 -198 217 -269 275 -58 48 -71 65 -50 65 5 0 67 -56 138
-125 71 -69 133 -125 137 -125 11 0 -4 70 -21 95 -8 12 -12 30 -8 39 7 18 -20
66 -38 66 -7 0 -5 -7 4 -17 28 -33 32 -46 12 -35 -11 6 -28 19 -39 29 -12 10
-31 27 -44 38 l-24 20 11 -20 c5 -11 22 -31 36 -44 14 -14 26 -29 26 -34 0 -6
18 -34 40 -64 23 -29 38 -53 35 -53 -3 0 -38 34 -78 77 -101 107 -188 178
-198 162 -6 -10 -11 -10 -23 0 -24 20 -19 29 12 23 31 -5 66 -30 145 -102 32
-29 57 -47 57 -42 0 6 -30 38 -67 72 -60 54 -65 60 -38 54 17 -4 48 -16 70
-28 22 -11 47 -21 56 -22 9 -1 21 -4 27 -8 15 -9 50 -90 64 -146 14 -58 133
-275 166 -300 27 -22 42 -25 42 -10 0 6 -6 10 -14 10 -16 0 -46 26 -46 40 0 5
10 10 22 12 19 3 20 5 7 18 -87 91 -133 155 -150 211 -21 69 -18 83 11 52 45
-49 198 -325 235 -425 24 -65 14 -198 -16 -198 -10 0 -23 9 -29 20 -15 28 -9
75 10 75 9 0 16 10 17 25 1 27 -21 70 -38 70 -5 0 -3 -10 5 -22 22 -32 20 -47
-10 -60 -21 -10 -25 -17 -20 -39 6 -32 -6 -39 -64 -39 -55 0 -66 -6 -105 -59
-26 -36 -33 -54 -29 -76 8 -46 23 -66 62 -82 20 -8 47 -25 60 -36 22 -20 24
-21 33 -5 8 14 15 15 35 8 57 -22 165 -2 227 42 15 11 38 21 50 22 57 7 98 40
82 66 -3 6 -1 10 5 10 6 0 8 5 4 12 -4 7 -7 46 -6 87 2 60 8 87 32 137 17 34
28 68 25 76 -4 10 -32 18 -88 25 -80 10 -113 8 -69 -4 12 -3 22 -12 22 -21 0
-12 10 -14 54 -8 69 8 79 -9 39 -67 -26 -37 -28 -49 -32 -154 -3 -102 -5 -115
-24 -128 -12 -8 -30 -15 -39 -15 -10 0 -42 -13 -71 -29 -70 -39 -145 -57 -183
-44 -29 9 -74 64 -74 89 0 7 7 19 15 28 8 8 15 19 15 25 0 6 7 11 15 11 8 0
15 5 15 10 0 21 -28 9 -63 -27 -21 -20 -38 -42 -38 -50 -1 -7 -3 -17 -4 -23
-1 -5 -3 -15 -4 -22 -3 -30 -32 22 -40 70 -10 66 2 91 53 109 36 12 46 11 104
-8 87 -29 97 -20 97 95 l0 83 -93 184 c-50 101 -92 189 -92 194 0 6 -34 45
-75 88 -41 44 -75 82 -75 87 0 4 -28 22 -62 40 -35 18 -85 53 -112 79 l-49 46
32 -42 c18 -24 27 -43 21 -43 -27 0 -169 41 -210 61 -74 36 -244 156 -321 227
-40 37 -70 61 -65 55 11 -19 -4 -16 -27 5 -25 21 -14 -2 16 -35 11 -13 18 -25
15 -28 -3 -3 -31 24 -62 61 -31 37 -54 69 -51 72 3 3 12 -4 21 -16 8 -12 24
-22 34 -22 10 0 22 -4 25 -10 3 -5 15 -10 26 -10 11 0 33 -7 49 -15 17 -9 30
-12 30 -7 0 5 -39 28 -86 51 -142 69 -292 237 -349 392 -9 24 -23 55 -30 69
-20 38 -36 104 -37 154 0 36 -4 43 -17 39 -12 -4 -13 -3 -2 5 33 23 -46 232
-88 232 -6 0 -11 8 -11 19 0 16 -24 30 -52 31 -4 0 0 -24 8 -52z m162 -388 c6
-16 7 -30 2 -30 -6 0 -30 52 -30 67 0 14 20 -12 28 -37z m102 -225 c0 -5 -5
-3 -10 5 -5 8 -10 20 -10 25 0 6 5 3 10 -5 5 -8 10 -19 10 -25z m39 -85 c15
-24 15 -24 -3 -10 -18 14 -18 13 -12 -10 7 -23 6 -23 -13 5 -12 17 -21 34 -21
38 0 17 33 1 49 -23z m69 -62 c14 -14 16 -32 4 -24 -5 3 20 -25 55 -61 35 -36
62 -68 59 -70 -2 -3 -23 16 -46 41 -23 25 -46 44 -50 41 -5 -3 -22 12 -39 33
-22 27 -30 32 -31 19 0 -10 -4 -15 -10 -12 -16 10 -12 33 8 38 30 8 38 7 50
-5z m39 -265 c60 -59 67 -72 22 -46 -36 21 -199 189 -199 205 0 10 53 -37 177
-159z m310 -87 c34 -32 85 -74 113 -93 29 -19 49 -37 46 -40 -10 -11 -80 43
-171 132 -49 48 -81 81 -70 74 11 -8 48 -40 82 -73z m68 -22 c36 -33 44 -44
20 -25 -69 52 -100 80 -90 81 6 0 37 -25 70 -56z m171 -102 c72 -51 315 -264
310 -270 -7 -6 -55 32 -164 131 -53 49 -110 96 -127 104 -16 9 -34 22 -38 29
-4 8 -13 14 -19 14 -6 0 -5 -7 3 -17 7 -10 1 -7 -14 6 -15 14 -27 28 -27 33 0
17 26 6 76 -30z m-36 -37 c11 -13 10 -14 -4 -9 -9 3 -16 10 -16 15 0 13 6 11
20 -6z m600 -439 c0 -13 -39 35 -40 48 0 5 9 -1 20 -14 11 -13 20 -28 20 -34z"/>
<path d="M3130 2351 c0 -5 5 -13 10 -16 6 -3 10 -2 10 4 0 5 -4 13 -10 16 -5
3 -10 2 -10 -4z"/>
<path d="M3380 2354 c0 -5 7 -19 15 -30 8 -10 15 -14 15 -8 0 5 -7 19 -15 30
-8 10 -15 14 -15 8z"/>
<path d="M3060 2343 c0 -5 5 -15 10 -23 8 -12 10 -11 10 8 0 12 -4 22 -10 22
-5 0 -10 -3 -10 -7z"/>
<path d="M4260 2342 c0 -5 10 -17 21 -28 22 -19 22 -19 10 3 -12 24 -31 39
-31 25z"/>
<path d="M4428 2322 c13 -17 28 -35 34 -39 7 -3 2 8 -10 25 -13 17 -28 35 -34
39 -7 3 -2 -8 10 -25z"/>
<path d="M2850 2335 c0 -15 18 -40 24 -34 3 3 -1 14 -9 25 -8 10 -14 15 -15 9z"/>
<path d="M3341 2335 c0 -18 28 -61 29 -44 0 8 -7 24 -15 35 -8 10 -14 15 -14
9z"/>
<path d="M4310 2335 c0 -5 5 -17 10 -25 5 -8 10 -10 10 -5 0 6 -5 17 -10 25
-5 8 -10 11 -10 5z"/>
<path d="M3010 2318 c0 -17 36 -66 43 -58 2 3 -7 20 -20 39 -13 19 -23 27 -23
19z"/>
<path d="M3290 2323 c0 -5 9 -21 20 -38 24 -36 26 -26 5 15 -15 29 -25 38 -25
23z"/>
<path d="M4130 2324 c0 -5 14 -29 30 -54 16 -25 30 -38 30 -30 0 8 -14 33 -30
54 -17 22 -30 35 -30 30z"/>
<path d="M4660 2296 c0 -7 10 -20 23 -29 13 -8 47 -51 76 -96 30 -45 56 -80
58 -77 9 9 -133 216 -149 216 -4 0 -8 -6 -8 -14z"/>
<path d="M3167 2283 c7 -20 33 -60 33 -52 0 17 -23 69 -31 69 -4 0 -6 -8 -2
-17z"/>
<path d="M3541 2273 c7 -12 15 -20 18 -17 3 2 -3 12 -13 22 -17 16 -18 16 -5
-5z"/>
<path d="M4285 2250 c16 -16 31 -28 33 -25 7 7 -39 55 -52 55 -5 0 3 -13 19
-30z"/>
<path d="M4220 2262 c0 -4 10 -13 23 -21 22 -14 22 -14 3 8 -20 22 -26 25 -26
13z"/>
<path d="M3610 2240 c6 -11 13 -20 16 -20 2 0 0 9 -6 20 -6 11 -13 20 -16 20
-2 0 0 -9 6 -20z"/>
<path d="M4863 2209 c7 -18 19 -35 26 -37 9 -3 9 4 -3 26 -22 43 -40 51 -23
11z"/>
<path d="M4910 2213 c0 -4 5 -15 10 -23 8 -13 10 -13 10 2 0 9 -4 20 -10 23
-5 3 -10 3 -10 -2z"/>
<path d="M4592 2156 c26 -32 48 -51 57 -48 8 3 12 0 9 -9 -2 -7 10 -33 28 -56
18 -24 46 -66 61 -93 15 -28 31 -50 35 -50 4 0 -6 24 -24 53 -17 28 -39 71
-49 95 -17 39 -132 162 -152 162 -4 0 11 -24 35 -54z"/>
<path d="M3850 2191 c0 -5 5 -13 10 -16 6 -3 10 -2 10 4 0 5 -4 13 -10 16 -5
3 -10 2 -10 -4z"/>
<path d="M4539 2172 c6 -12 16 -24 22 -28 8 -4 8 -1 0 14 -6 12 -16 24 -22 28
-8 4 -8 1 0 -14z"/>
<path d="M3645 2170 c3 -5 8 -10 11 -10 2 0 4 5 4 10 0 6 -5 10 -11 10 -5 0
-7 -4 -4 -10z"/>
<path d="M3742 2163 c-8 -14 -9 -24 -2 -28 12 -7 24 18 18 37 -3 8 -9 5 -16
-9z"/>
<path d="M3910 2177 c0 -14 34 -77 42 -77 4 0 -2 17 -13 38 -23 41 -29 49 -29
39z"/>
<path d="M4310 2172 c0 -5 7 -15 15 -22 8 -7 15 -8 15 -2 0 5 -7 15 -15 22 -8
7 -15 8 -15 2z"/>
<path d="M3984 2142 c9 -17 21 -34 27 -37 6 -4 4 7 -5 23 -9 17 -21 34 -27 37
-6 4 -4 -7 5 -23z"/>
<path d="M4490 2161 c0 -5 7 -15 17 -22 15 -13 15 -12 4 9 -12 23 -21 28 -21
13z"/>
<path d="M4065 2110 c14 -29 29 -50 31 -47 7 7 -32 84 -47 92 -5 4 1 -16 16
-45z"/>
<path d="M4895 2150 c-3 -5 -2 -10 4 -10 5 0 13 5 16 10 3 6 2 10 -4 10 -5 0
-13 -4 -16 -10z"/>
<path d="M4440 2146 c0 -2 8 -10 18 -17 15 -13 16 -12 3 4 -13 16 -21 21 -21
13z"/>
<path d="M3870 2133 c0 -4 5 -15 10 -23 8 -13 10 -13 10 2 0 9 -4 20 -10 23
-5 3 -10 3 -10 -2z"/>
<path d="M4140 2123 c0 -12 53 -84 58 -78 3 2 -7 23 -22 45 -25 38 -36 48 -36
33z"/>
<path d="M5440 2126 c0 -2 8 -10 18 -17 15 -13 16 -12 3 4 -13 16 -21 21 -21
13z"/>
<path d="M5486 2116 c10 -8 21 -12 24 -10 5 6 -21 24 -34 24 -6 0 -1 -6 10
-14z"/>
<path d="M4406 2050 c21 -38 40 -68 42 -65 5 5 -67 135 -74 135 -3 0 12 -31
32 -70z"/>
<path d="M4450 2105 c0 -13 82 -116 88 -111 3 3 -12 27 -33 53 -52 65 -55 68
-55 58z"/>
<path d="M5499 2076 c26 -28 31 -31 31 -17 0 5 -12 17 -27 26 l-28 18 24 -27z"/>
<path d="M3960 2060 c0 -5 5 -10 11 -10 5 0 7 5 4 10 -3 6 -8 10 -11 10 -2 0
-4 -4 -4 -10z"/>
<path d="M4540 2052 c0 -5 10 -17 21 -28 22 -19 22 -19 10 3 -12 24 -31 39
-31 25z"/>
<path d="M4094 2003 c14 -28 31 -55 37 -58 12 -8 -22 61 -46 90 -9 11 -4 -3 9
-32z"/>
<path d="M4150 2036 c0 -13 42 -78 47 -72 3 2 -7 22 -21 43 -14 20 -26 34 -26
29z"/>
<path d="M4640 2038 c0 -25 127 -244 137 -235 2 3 -14 33 -36 67 -23 35 -41
68 -41 74 0 6 -14 31 -30 56 -16 25 -30 42 -30 38z"/>
<path d="M4750 2021 c0 -5 5 -13 10 -16 6 -3 10 -2 10 4 0 5 -4 13 -10 16 -5
3 -10 2 -10 -4z"/>
<path d="M4615 1896 c26 -42 49 -76 52 -76 9 0 -75 144 -87 148 -6 2 10 -30
35 -72z"/>
<path d="M4057 1949 c7 -7 15 -10 18 -7 3 3 -2 9 -12 12 -14 6 -15 5 -6 -5z"/>
<path d="M4465 1950 c3 -5 8 -10 11 -10 2 0 4 5 4 10 0 6 -5 10 -11 10 -5 0
-7 -4 -4 -10z"/>
<path d="M4526 1935 c9 -14 19 -24 21 -21 6 6 -20 46 -30 46 -4 0 0 -11 9 -25z"/>
<path d="M4240 1946 c0 -2 7 -9 15 -16 13 -11 14 -10 9 4 -5 14 -24 23 -24 12z"/>
<path d="M3710 1924 c0 -12 87 -165 102 -179 6 -5 -8 26 -32 70 -50 92 -70
124 -70 109z"/>
<path d="M3906 1907 c3 -10 9 -15 12 -12 3 3 0 11 -7 18 -10 9 -11 8 -5 -6z"/>
<path d="M3994 1893 c9 -18 18 -33 20 -33 9 0 -8 41 -22 52 -13 11 -12 8 2
-19z"/>
<path d="M4890 1917 c0 -4 20 -37 44 -74 24 -37 53 -87 65 -110 12 -24 26 -43
32 -43 12 0 14 -5 -36 80 -39 66 -105 158 -105 147z"/>
<path d="M4500 1880 c6 -11 13 -20 16 -20 2 0 0 9 -6 20 -6 11 -13 20 -16 20
-2 0 0 -9 6 -20z"/>
<path d="M4070 1873 c0 -7 9 -27 20 -45 11 -18 20 -27 20 -21 0 7 -9 27 -20
45 -11 18 -20 27 -20 21z"/>
<path d="M4171 1850 c0 -8 6 -24 14 -34 19 -25 19 -9 0 24 -8 14 -14 19 -14
10z"/>
<path d="M4572 1820 c7 -11 16 -20 20 -20 5 0 3 9 -4 20 -7 11 -16 20 -20 20
-5 0 -3 -9 4 -20z"/>
<path d="M4365 1803 c36 -55 45 -67 45 -58 0 13 -48 85 -57 85 -3 0 3 -12 12
-27z"/>
<path d="M4731 1742 c18 -34 34 -60 36 -58 6 5 -30 75 -52 101 -9 11 -2 -8 16
-43z"/>
<path d="M3739 1768 c18 -48 52 -110 58 -105 2 3 -7 29 -22 59 -30 60 -52 88
-36 46z"/>
<path d="M4774 1743 c14 -29 32 -56 39 -60 18 -11 97 -119 97 -133 0 -5 5 -10
11 -10 5 0 8 3 6 8 -3 4 -23 37 -46 74 -22 37 -43 79 -47 93 -4 15 -13 25 -24
25 -10 0 -28 12 -40 28 -18 23 -18 20 4 -25z"/>
<path d="M4609 1762 c6 -12 16 -24 22 -28 8 -4 8 -1 0 14 -6 12 -16 24 -22 28
-8 4 -8 1 0 -14z"/>
<path d="M3710 1742 c6 -13 14 -21 18 -18 3 4 -2 14 -12 24 -18 16 -18 16 -6
-6z"/>
<path d="M3800 1715 c0 -5 12 -23 26 -40 14 -16 21 -21 15 -10 -14 30 -40 61
-41 50z"/>
<path d="M4427 1700 c3 -11 9 -20 15 -20 5 0 4 9 -2 20 -6 11 -12 20 -14 20
-2 0 -2 -9 1 -20z"/>
<path d="M4506 1687 c3 -10 9 -15 12 -12 3 3 0 11 -7 18 -10 9 -11 8 -5 -6z"/>
<path d="M4940 1670 c0 -5 5 -10 11 -10 5 0 7 5 4 10 -3 6 -8 10 -11 10 -2 0
-4 -4 -4 -10z"/>
<path d="M4790 1667 c0 -17 35 -75 104 -172 40 -55 86 -123 105 -152 28 -46
44 -58 130 -102 121 -62 143 -92 157 -211 3 -25 10 -49 15 -54 14 -15 11 26
-7 105 -21 91 -49 123 -158 178 -79 40 -146 99 -146 129 0 5 -9 21 -20 35 -15
19 -17 27 -8 31 9 3 5 11 -12 25 -53 44 -102 97 -120 131 -25 46 -40 67 -40
57z"/>
<path d="M4470 1631 c0 -6 4 -13 10 -16 6 -3 7 1 4 9 -7 18 -14 21 -14 7z"/>
<path d="M4124 1582 c8 -15 24 -36 37 -47 17 -15 15 -9 -10 28 -35 52 -49 62
-27 19z"/>
<path d="M4785 1576 c10 -14 19 -26 22 -26 7 0 -17 39 -28 46 -6 3 -3 -5 6
-20z"/>
<path d="M4429 1575 c14 -28 70 -92 71 -80 0 6 -18 30 -41 55 -22 25 -36 36
-30 25z"/>
<path d="M4651 1565 c0 -5 6 -19 14 -29 8 -11 15 -15 15 -10 0 6 -7 19 -15 30
-8 10 -14 15 -14 9z"/>
<path d="M4610 1542 c6 -13 14 -21 18 -18 3 4 -2 14 -12 24 -18 16 -18 16 -6
-6z"/>
<path d="M4535 1510 c21 -37 58 -80 75 -85 18 -6 114 -136 127 -172 4 -13 -3
-10 -28 12 l-34 30 29 -32 c16 -18 33 -30 37 -27 4 2 10 -5 14 -16 3 -11 10
-20 15 -20 13 0 2 25 -47 107 -24 40 -60 87 -78 105 -19 18 -54 51 -76 73 -23
22 -38 33 -34 25z"/>
<path d="M4765 1473 c4 -10 9 -31 11 -48 11 -77 16 -94 29 -105 18 -15 19 -7
5 23 -6 12 17 -7 51 -43 72 -76 68 -64 -13 38 -59 74 -72 97 -40 70 9 -8 26
-18 37 -23 25 -10 105 -23 105 -18 0 2 -13 15 -28 28 -15 13 -37 40 -47 59
-30 55 -39 43 -10 -14 34 -67 13 -67 -56 1 -28 27 -48 42 -44 32z"/>
<path d="M4432 1464 c10 -10 20 -15 24 -12 3 4 -5 12 -18 18 -22 12 -22 12 -6
-6z"/>
<path d="M4510 1464 c0 -5 7 -19 15 -30 8 -10 15 -14 15 -8 0 5 -7 19 -15 30
-8 10 -15 14 -15 8z"/>
<path d="M4080 1408 c0 -16 85 -100 119 -118 23 -12 23 -11 8 10 -25 36 -127
123 -127 108z"/>
<path d="M4579 1348 c17 -27 34 -48 37 -48 9 0 -30 61 -50 78 -11 9 -5 -4 13
-30z"/>
<path d="M4736 1363 c22 -89 44 -129 90 -165 27 -21 26 -20 -7 20 -21 24 -43
67 -54 102 -19 61 -42 96 -29 43z"/>
<path d="M4540 1296 c0 -2 8 -10 18 -17 15 -13 16 -12 3 4 -13 16 -21 21 -21
13z"/>
<path d="M4990 1276 c33 -39 100 -100 114 -105 11 -4 -44 52 -104 104 l-35 30
25 -29z"/>
<path d="M4895 1200 c10 -11 20 -20 23 -20 3 0 -3 9 -13 20 -10 11 -20 20 -23
20 -3 0 3 -9 13 -20z"/>
<path d="M4962 1186 c7 -8 15 -12 17 -11 5 6 -10 25 -20 25 -5 0 -4 -6 3 -14z"/>
<path d="M5150 1161 c0 -8 7 -23 17 -33 18 -21 4 -24 -28 -7 -18 9 -19 8 -10
-9 5 -10 17 -24 25 -32 9 -7 16 -18 16 -26 0 -19 22 -64 32 -64 11 0 10 41 -2
60 -5 9 -5 19 2 27 7 9 7 13 0 13 -5 0 -12 10 -15 23 -8 29 -36 67 -37 48z"/>
<path d="M4744 1141 c20 -22 26 -25 26 -13 0 4 -10 13 -22 21 -23 14 -23 14
-4 -8z"/>
<path d="M4955 1140 c10 -11 20 -20 23 -20 3 0 -3 9 -13 20 -10 11 -20 20 -23
20 -3 0 3 -9 13 -20z"/>
<path d="M4870 1146 c0 -2 7 -9 15 -16 13 -11 14 -10 9 4 -5 14 -24 23 -24 12z"/>
<path d="M4940 1046 c0 -2 8 -10 18 -17 15 -13 16 -12 3 4 -13 16 -21 21 -21
13z"/>
<path d="M5050 1027 c0 -8 31 -41 68 -71 37 -32 25 -13 -23 34 -25 24 -45 41
-45 37z"/>
<path d="M5172 984 c15 -15 30 -26 33 -23 2 3 -10 16 -28 29 l-32 23 27 -29z"/>
<path d="M5255 990 c10 -11 20 -20 23 -20 3 0 -3 9 -13 20 -10 11 -20 20 -23
20 -3 0 3 -9 13 -20z"/>
<path d="M5155 955 c17 -14 36 -25 44 -25 8 0 0 11 -19 25 -44 32 -64 32 -25
0z"/>
<path d="M5250 936 c0 -2 8 -10 18 -17 15 -13 16 -12 3 4 -13 16 -21 21 -21
13z"/>
<path d="M5312 903 c-8 -3 0 -20 26 -51 21 -26 42 -54 47 -62 8 -13 7 -13 -8
-1 -15 12 -17 12 -12 -1 3 -8 23 -25 45 -39 22 -13 39 -28 38 -34 -2 -24 4
-33 27 -43 34 -16 34 -15 28 8 -3 11 -9 20 -14 20 -5 0 -9 6 -9 13 0 8 -12 24
-26 38 -14 13 -47 51 -72 84 -57 76 -55 73 -70 68z"/>
<path d="M5310 830 c0 -5 5 -10 11 -10 5 0 7 5 4 10 -3 6 -8 10 -11 10 -2 0
-4 -4 -4 -10z"/>
<path d="M4891 763 c6 -20 208 -262 274 -328 33 -34 47 -45 30 -26 -16 19 -35
40 -41 46 -6 5 -26 30 -44 55 -19 25 -50 63 -69 85 -20 22 -54 62 -76 89 -61
74 -78 92 -74 79z"/>
<path d="M5030 687 c0 -3 21 -22 48 -43 45 -36 46 -36 17 -5 -28 30 -65 57
-65 48z"/>
<path d="M5434 661 c4 -6 24 -20 44 -31 20 -10 30 -19 22 -20 -13 0 -13 -1 0
-10 13 -9 12 -12 -4 -25 -24 -18 -40 -19 -69 -3 -20 10 -21 10 -8 -5 7 -9 29
-19 50 -23 20 -4 41 -10 46 -15 6 -4 25 -7 43 -7 26 1 32 5 32 23 0 33 -24 50
-41 28 -12 -15 -12 -16 4 -10 9 3 17 2 17 -3 0 -6 -3 -10 -7 -11 -5 0 -16 -2
-25 -4 -30 -5 -30 12 -2 55 15 22 24 44 20 47 -4 4 -24 6 -46 4 -21 -1 -48 3
-61 9 -15 8 -19 9 -15 1z"/>
<path d="M5434 585 c11 -8 22 -12 25 -9 6 6 -19 24 -34 24 -5 -1 -1 -7 9 -15z"/>
<path d="M5234 491 c11 -11 23 -21 28 -21 14 0 -1 19 -25 31 -22 12 -22 12 -3
-10z"/>
<path d="M5180 462 c0 -5 11 -19 25 -32 14 -13 25 -20 25 -16 0 4 -11 18 -25
32 -14 14 -25 21 -25 16z"/>
<path d="M5609 446 c-4 -4 -28 -9 -74 -16 -5 -1 0 -5 13 -10 23 -10 65 1 77
19 6 11 -7 16 -16 7z"/>
<path d="M5100 365 c30 -30 57 -55 59 -55 3 0 -19 25 -49 55 -30 30 -57 55
-59 55 -3 0 19 -25 49 -55z"/>
<path d="M5141 404 c1 -10 68 -68 73 -63 1 2 -15 19 -36 38 -21 18 -38 29 -37
25z"/>
<path d="M4862 317 c-42 -29 -52 -78 -25 -115 30 -40 133 -64 133 -31 0 5 -3
8 -7 8 -5 -1 -27 -1 -50 0 -42 1 -43 2 -43 36 0 20 9 53 20 75 24 47 14 57
-28 27z"/>
<path d="M5548 313 c-19 -5 -25 -23 -8 -23 6 0 10 -4 10 -10 0 -5 -8 -7 -17
-4 -16 5 -15 3 1 -10 24 -19 27 -16 30 23 1 17 2 30 2 30 -1 -1 -9 -3 -18 -6z"/>
<path d="M5510 231 c0 -10 8 -25 18 -32 16 -13 16 -13 2 5 -14 18 -13 19 4 12
19 -7 19 -6 1 14 -22 25 -25 25 -25 1z"/>
</g>
</svg>
